<svg xmlns="http://www.w3.org/2000/svg" viewBox="0 0 750 500"><g id="freepik--background-complete--inject-3"><rect x="11.04" y="157.74" width="280.41" height="10.17" style="fill:#f5f5f5"></rect><rect x="11.04" y="177.59" width="280.41" height="10.17" style="fill:#f5f5f5"></rect><rect x="414.56" y="45.76" width="114.93" height="190.02" style="fill:#e0e0e0"></rect><rect x="420.8" y="54.19" width="102.35" height="173.23" style="fill:#fff"></rect><rect x="418.37" y="83.29" width="108.01" height="8.02" style="fill:#e0e0e0"></rect><path d="M510.72,108.15c.1.11-14.75,14.55-33.16,32.27s-33.42,32-33.52,31.89S458.78,157.76,477.2,140,510.62,108.05,510.72,108.15Z" style="fill:#e0e0e0"></path><path d="M490.48,108.58c.1.1-9.35,9.46-21.1,20.89S448,150.1,447.92,150s9.35-9.46,21.1-20.9S490.38,108.48,490.48,108.58Z" style="fill:#e0e0e0"></path><rect x="292.09" y="45.76" width="114.93" height="189.91" style="fill:#e0e0e0"></rect><rect x="298.32" y="54.19" width="102.35" height="173.13" style="fill:#fff"></rect><rect x="295.9" y="83.29" width="108.01" height="8.02" style="fill:#e0e0e0"></rect><path d="M388.25,108.15c.1.11-14.75,14.55-33.16,32.27s-33.43,32-33.53,31.89,14.75-14.55,33.17-32.27S388.15,108.05,388.25,108.15Z" style="fill:#e0e0e0"></path><path d="M368,108.58c.1.1-9.34,9.46-21.09,20.89S325.55,150.1,325.45,150s9.34-9.46,21.09-20.9S367.9,108.48,368,108.58Z" style="fill:#e0e0e0"></path><rect x="292.09" y="45.76" width="114.93" height="4.94" style="fill:#f5f5f5"></rect><rect x="292.09" y="54.19" width="114.93" height="4.94" style="fill:#f5f5f5"></rect><rect x="292.09" y="62.62" width="114.93" height="4.94" style="fill:#f5f5f5"></rect><rect x="292.09" y="71.05" width="114.93" height="4.94" style="fill:#f5f5f5"></rect><rect x="292.09" y="79.47" width="114.93" height="4.94" style="fill:#f5f5f5"></rect><rect x="292.09" y="87.9" width="114.93" height="4.94" style="fill:#f5f5f5"></rect><rect x="292.09" y="96.33" width="114.93" height="4.94" style="fill:#f5f5f5"></rect><rect x="292.09" y="104.76" width="114.93" height="4.94" style="fill:#f5f5f5"></rect><rect x="292.09" y="113.19" width="114.93" height="4.94" style="fill:#f5f5f5"></rect><rect x="292.09" y="121.61" width="114.93" height="4.94" style="fill:#f5f5f5"></rect><rect x="292.09" y="130.04" width="114.93" height="4.94" style="fill:#f5f5f5"></rect><rect x="292.09" y="139.02" width="114.93" height="4.94" style="fill:#f5f5f5"></rect><rect x="292.09" y="148.01" width="114.93" height="4.94" style="fill:#f5f5f5"></rect><rect x="292.09" y="156.99" width="114.93" height="4.94" style="fill:#f5f5f5"></rect><rect x="539.84" y="44.28" width="166.9" height="383" style="fill:#ebebeb"></rect><rect x="547.54" y="136.82" width="72.68" height="279.22" style="fill:#f5f5f5"></rect><rect x="626.74" y="136.82" width="72.68" height="279.22" style="fill:#f5f5f5"></rect><path d="M706.33,129.18c0,.14-37.43.26-83.59.26s-83.59-.12-83.59-.26,37.42-.26,83.59-.26S706.33,129,706.33,129.18Z" style="fill:#e0e0e0"></path><rect x="547.54" y="50.17" width="72.68" height="72.68" style="fill:#f5f5f5"></rect><rect x="626.23" y="50.17" width="72.68" height="72.68" style="fill:#f5f5f5"></rect><circle cx="612.58" cy="88.84" r="3.69" style="fill:#ebebeb"></circle><circle cx="634.94" cy="88.84" r="3.69" style="fill:#ebebeb"></circle><circle cx="612.58" cy="245.05" r="3.69" style="fill:#ebebeb"></circle><circle cx="634.94" cy="245.05" r="3.69" style="fill:#ebebeb"></circle></g><g id="freepik--Floor--inject-3"><path d="M727.12,428.3c0,.14-158.21.26-353.32.26s-353.35-.12-353.35-.26S178.62,428,373.8,428,727.12,428.15,727.12,428.3Z" style="fill:#263238"></path></g><g id="freepik--wall-sockets--inject-3"><rect x="73.77" y="212.67" width="100.97" height="17.89" style="fill:#f5f5f5"></rect><path d="M174.74,230.57a2.15,2.15,0,0,1,0-.32c0-.21,0-.51,0-.89q0-1.22,0-3.48c0-3-.05-7.51-.08-13.21l.14.14-101,.12h0l.26-.26c0,6.13,0,12.15,0,17.9l-.25-.26,71.85.11,21.33.08,5.76,0,1.5,0c.34,0,.53,0,.53,0h-.49l-1.47,0-5.71,0-21.26.08-72,.11h-.26V212.41h.26l101,.13h.13v.13c0,5.74-.06,10.22-.07,13.29,0,1.5,0,2.65,0,3.45,0,.37,0,.66,0,.87S174.74,230.57,174.74,230.57Z" style="fill:#263238"></path><path d="M95,221.62a6.54,6.54,0,1,1-6.53-6.53A6.53,6.53,0,0,1,95,221.62Z" style="fill:#e0e0e0"></path><path d="M95,221.62c-.06,0,0-.58-.3-1.57a6.56,6.56,0,0,0-2.39-3.48,6.37,6.37,0,0,0-6-.86,6.23,6.23,0,0,0-2.91,2.2,6.25,6.25,0,0,0,0,7.42,6.23,6.23,0,0,0,2.91,2.2,6.35,6.35,0,0,0,6-.87,6.51,6.51,0,0,0,2.39-3.47c.26-1,.24-1.57.3-1.57s0,.14,0,.42a4.75,4.75,0,0,1-.14,1.2A6.47,6.47,0,0,1,92.55,227,6.72,6.72,0,0,1,83,225.63a6.71,6.71,0,0,1,0-8,6.72,6.72,0,0,1,9.53-1.33A6.44,6.44,0,0,1,94.91,220a4.66,4.66,0,0,1,.14,1.2Q95.05,221.62,95,221.62Z" style="fill:#263238"></path><path d="M112.32,221.62a6.54,6.54,0,1,1-6.53-6.53A6.53,6.53,0,0,1,112.32,221.62Z" style="fill:#e0e0e0"></path><path d="M112.32,221.62c-.06,0,0-.58-.3-1.57a6.56,6.56,0,0,0-2.39-3.48,6.37,6.37,0,0,0-6-.86,6.28,6.28,0,0,0-2.91,2.2,6.25,6.25,0,0,0,0,7.42,6.32,6.32,0,0,0,8.9,1.33,6.51,6.51,0,0,0,2.39-3.47c.27-1,.24-1.57.3-1.57s0,.14,0,.42a4.75,4.75,0,0,1-.14,1.2,6.47,6.47,0,0,1-2.36,3.72,6.72,6.72,0,0,1-9.53-1.33,6.71,6.71,0,0,1,0-8,6.72,6.72,0,0,1,9.53-1.33,6.44,6.44,0,0,1,2.36,3.72,4.66,4.66,0,0,1,.14,1.2Q112.35,221.62,112.32,221.62Z" style="fill:#263238"></path><path d="M87.23,221.62A1.24,1.24,0,1,1,86,220.39,1.23,1.23,0,0,1,87.23,221.62Z" style="fill:#263238"></path><path d="M92.21,221.62A1.24,1.24,0,1,1,91,220.39,1.23,1.23,0,0,1,92.21,221.62Z" style="fill:#263238"></path><path d="M104.53,221.62a1.24,1.24,0,1,1-1.23-1.23A1.23,1.23,0,0,1,104.53,221.62Z" style="fill:#263238"></path><path d="M109.51,221.62a1.24,1.24,0,1,1-1.23-1.23A1.23,1.23,0,0,1,109.51,221.62Z" style="fill:#263238"></path><path d="M130.07,221.62a6.53,6.53,0,1,1-6.53-6.53A6.53,6.53,0,0,1,130.07,221.62Z" style="fill:#e0e0e0"></path><path d="M130.07,221.62s0-.58-.3-1.57a6.56,6.56,0,0,0-2.39-3.48,6.35,6.35,0,0,0-6-.86,6.29,6.29,0,0,0,0,11.82,6.33,6.33,0,0,0,6-.87,6.51,6.51,0,0,0,2.39-3.47c.27-1,.25-1.57.3-1.57s0,.14,0,.42a5.14,5.14,0,0,1-.13,1.2A6.55,6.55,0,0,1,127.6,227a6.75,6.75,0,1,1,0-10.68A6.52,6.52,0,0,1,130,220a5,5,0,0,1,.13,1.2Q130.1,221.62,130.07,221.62Z" style="fill:#263238"></path><path d="M122.28,221.62a1.23,1.23,0,1,1-1.23-1.23A1.23,1.23,0,0,1,122.28,221.62Z" style="fill:#263238"></path><path d="M127.26,221.62a1.23,1.23,0,1,1-1.23-1.23A1.23,1.23,0,0,1,127.26,221.62Z" style="fill:#263238"></path><rect x="164.13" y="216.35" width="5.61" height="10.57" style="fill:#fff"></rect><path d="M169.75,226.92a5.12,5.12,0,0,1-.06-.83c0-.61,0-1.35-.07-2.22-.05-1.87-.1-4.48-.12-7.52l.25.25h-5.62c-.06.06.49-.49.26-.25h0v3c0,1,0,1.9,0,2.79,0,1.76,0,3.39,0,4.81l-.2-.2c1.69,0,3.07.07,4,.11a15.13,15.13,0,0,1,1.58.09,8.65,8.65,0,0,1-1.45.09c-1,0-2.4.08-4.17.11h-.19v-.2c0-1.42,0-3,0-4.81,0-.89,0-1.83,0-2.79,0-.48,0-1,0-1.46v-1.5h0c-.23.23.32-.32.26-.27l5.62,0H170v.24c0,3.15-.07,5.82-.12,7.69,0,.84-.05,1.56-.06,2.15A3.94,3.94,0,0,1,169.75,226.92Z" style="fill:#263238"></path><path d="M169.92,221.33a16.25,16.25,0,0,1-5.79,0,16.25,16.25,0,0,1,5.79,0Z" style="fill:#263238"></path><rect x="154.27" y="216.35" width="5.61" height="10.57" style="fill:#FF725E"></rect><path d="M159.88,226.92a5.12,5.12,0,0,1-.06-.83c0-.61,0-1.35-.07-2.22,0-1.87-.1-4.48-.11-7.52l.24.25h-5.61c-.06.06.49-.49.26-.25h0v1.5c0,.49,0,1,0,1.46,0,1,0,1.9,0,2.79l0,4.81-.19-.2c1.68,0,3.06.07,4,.11a14.78,14.78,0,0,1,1.57.09,8.36,8.36,0,0,1-1.45.09c-1,0-2.39.08-4.16.11h-.2v-.2c0-1.42,0-3,0-4.81,0-.89,0-1.83,0-2.79v-3h0c-.24.23.31-.32.26-.27l5.61,0h.25v.24c0,3.15-.07,5.82-.11,7.69,0,.84,0,1.56-.07,2.15A3,3,0,0,1,159.88,226.92Z" style="fill:#263238"></path><path d="M160.05,221.33a16.19,16.19,0,0,1-5.78,0,16.19,16.19,0,0,1,5.78,0Z" style="fill:#263238"></path></g><g id="freepik--Armchair--inject-3"><polygon points="630.72 376.51 631.25 375.6 622.95 377.39 630.72 428.3 635.32 428.3 630.72 376.51" style="fill:#6f4439"></polygon><path d="M575.78,328a6.22,6.22,0,0,0-4.83,6.31c.26,6.62,1.09,18.21,3.72,25,3.83,9.9,4.79,13.74,12.13,13.42s110.82,0,110.82,0,9.26.32,13.09-13.1,12.45-65.46,7.66-74.72-25.23-12.14-34.17-11.5-25.53-1.94-47.24,25.2L615.54,323A200.49,200.49,0,0,0,575.78,328Z" style="fill:#FF725E"></path><g style="opacity:0.30000000000000004"><path d="M647.4,287.36l-20.68,57.91H588.4s-3-19.46-8.6-18.06c0,0,28.08-4.68,35.74-4.17Z"></path></g><g style="opacity:0.30000000000000004"><path d="M660.25,373.18s4.15-5.45,6.07-15.35,6.71-31-3-30.66c0,0,28.26.89,34-3.7s21.87-35.69,21.87-35.69,1.54,11.7-.86,29-5.77,37.89-8,44c-1.68,4.63-4.54,11.26-12.68,12C689,373.47,660.25,373.18,660.25,373.18Z"></path></g><path d="M588.06,372.63s1.9,5.82,14,5.82h82.25s10.43-.23,13.36-5.84Z" style="fill:#ae7461"></path><path d="M666.32,357.83a1.4,1.4,0,0,1,0-.3c.06-.23.12-.51.21-.87l.75-3.35a85.39,85.39,0,0,0,1.84-12.47,28.24,28.24,0,0,0-.59-8.61,7,7,0,0,0-2.41-3.93c-1.28-1-3.09-1-4.77-.69a10.14,10.14,0,0,0-4.73,2.26,15.86,15.86,0,0,0-3.51,4.29,32.62,32.62,0,0,0-3.72,11.15l0,.24h-1.08L606,345.47l-12.84-.09-3.5-.05-.9,0a.16.16,0,1,1,0-.06l.9,0,3.5-.06,12.84-.09,42.37-.08h.84l-.28.25a33,33,0,0,1,3.81-11.36,16.3,16.3,0,0,1,3.64-4.42,10.64,10.64,0,0,1,5-2.36,10,10,0,0,1,1.33-.15l.67,0,.67.06a5.77,5.77,0,0,1,1.31.28c.21.08.41.2.61.29a2.19,2.19,0,0,1,.56.35,7.42,7.42,0,0,1,2.57,4.21,28.28,28.28,0,0,1,.53,8.76,80.06,80.06,0,0,1-2,12.49c-.35,1.45-.65,2.57-.86,3.33l-.26.85A1,1,0,0,1,666.32,357.83Z" style="fill:#263238"></path><polygon points="594.81 375.6 595.34 376.51 590.75 428.3 595.34 428.3 603.12 377.39 594.81 375.6" style="fill:#ae7461"></polygon><polygon points="653.14 376.51 653.67 375.6 645.37 377.39 653.14 428.3 657.74 428.3 653.14 376.51" style="fill:#ae7461"></polygon><polygon points="685 376.51 685.53 375.6 677.22 377.39 689.59 428.3 694.19 428.3 685 376.51" style="fill:#ae7461"></polygon><path d="M698.77,372.76c0,.14-25.91.26-57.85.26s-57.86-.12-57.86-.26,25.9-.27,57.86-.27S698.77,372.61,698.77,372.76Z" style="fill:#263238"></path><path d="M645,378.45c0,.15-9.46.26-21.11.26s-21.12-.11-21.12-.26,9.45-.26,21.12-.26S645,378.31,645,378.45Z" style="fill:#263238"></path><path d="M677.38,378.45c0,.15-5.37.26-12,.26s-12-.11-12-.26,5.36-.26,12-.26S677.38,378.31,677.38,378.45Z" style="fill:#263238"></path></g><g id="freepik--Plant--inject-3"><path d="M553.68,275.28c-8,4.13-14.09,11.24-18.49,19.07s-7.23,16.42-10,24.95l-2.46,44c9.28-15.78,16.73-34.34,18.74-52.53l-6.18-.55c4.14-.64,7.62-3.64,9.83-7.19s3.35-7.66,4.46-11.7L542,292.44A27.94,27.94,0,0,0,553.68,275.28Z" style="fill:#455a64"></path><g style="opacity:0.30000000000000004"><path d="M553.68,275.28c-8,4.13-14.09,11.24-18.49,19.07s-7.23,16.42-10,24.95l-2.46,44c9.28-15.78,16.73-34.34,18.74-52.53l-6.18-.55c4.14-.64,7.62-3.64,9.83-7.19s3.35-7.66,4.46-11.7L542,292.44A27.94,27.94,0,0,0,553.68,275.28Z"></path></g><path d="M521.33,373.6s-20.14-24.11-19.91-47.11h8.14s-8.84-5.81-8.14-9.07.93-15.57.93-15.57l7.44,1.86s-5.58-2.79-6.27-7.2,1.62-24.87,1.62-24.87,9.07,9.53,11.86,19.29,10.11,21.15,8,50.89S521.33,373.6,521.33,373.6Z" style="fill:#455a64"></path><path d="M531.54,375.87s21.81-14.53,26.66-33.08L551.66,341s8.37-2.74,8.52-5.51,2.66-12.72,2.66-12.72l-6.38-.13s5.09-1,6.62-4.42,4.13-20.35,4.13-20.35-9.37,5.68-13.75,12.91-12.75,14.8-17.53,39.18S531.54,375.87,531.54,375.87Z" style="fill:#455a64"></path><path d="M510.64,292.65a.76.76,0,0,1,.08.25c0,.2.11.44.19.74.15.69.37,1.65.65,2.86.56,2.48,1.31,6.09,2.16,10.56,1.72,8.94,3.75,21.36,5.35,35.15s2.45,26.36,2.81,35.46c.19,4.55.29,8.23.31,10.77,0,1.24,0,2.22,0,2.93v.77a.9.9,0,0,1,0,.26,1.83,1.83,0,0,1,0-.26c0-.2,0-.45,0-.76,0-.71-.07-1.69-.12-2.93-.08-2.54-.23-6.22-.46-10.76-.46-9.09-1.38-21.63-3-35.42s-3.57-26.2-5.19-35.15c-.81-4.47-1.5-8.09-2-10.58-.24-1.22-.42-2.18-.56-2.88-.05-.3-.09-.55-.13-.75A.86.86,0,0,1,510.64,292.65Z" style="fill:#263238"></path><path d="M518.54,388.35s-18.43-20.9-24.15-33.54l4.32-1.85c-3.14.52-6.34-.83-8.77-2.87a33.05,33.05,0,0,1-6-7.38l5.69-1a21.18,21.18,0,0,1-12.43-9.63c6.71,1.1,12.79,4.79,17.79,9.4A88.68,88.68,0,0,1,505.82,354,42.46,42.46,0,0,1,510,360.9C513.1,367.3,518.55,380.68,518.54,388.35Z" style="fill:#455a64"></path><path d="M558.49,310.05a.68.68,0,0,1-.08.21c-.07.17-.16.37-.28.62L557,313.2c-1,2-2.37,4.94-4.06,8.56-3.37,7.25-7.83,17.37-12.24,28.75s-7.9,21.87-10.28,29.5c-1.19,3.82-2.13,6.92-2.75,9.07-.32,1-.56,1.86-.75,2.47l-.2.63a.73.73,0,0,1-.09.22s0-.08,0-.23l.15-.65c.16-.62.38-1.45.65-2.5.57-2.16,1.45-5.28,2.6-9.11,2.29-7.67,5.74-18.19,10.15-29.59s8.92-21.5,12.39-28.72c1.73-3.6,3.18-6.5,4.21-8.49l1.2-2.28c.13-.24.24-.43.32-.59S558.48,310,558.49,310.05Z" style="fill:#263238"></path><path d="M520.1,397.31a7.79,7.79,0,0,1-.3-1.49c-.15-1-.39-2.35-.74-4.06a83.1,83.1,0,0,0-9.56-25.34c-.88-1.51-1.61-2.71-2.13-3.53a9,9,0,0,1-.77-1.32,9,9,0,0,1,.94,1.2c.57.79,1.36,2,2.27,3.47a73.37,73.37,0,0,1,6,12.28,74.13,74.13,0,0,1,3.61,13.17c.3,1.73.5,3.13.58,4.11A8.93,8.93,0,0,1,520.1,397.31Z" style="fill:#263238"></path><rect x="504.08" y="392.4" width="40.33" height="8.23" style="fill:#FF725E"></rect><polygon points="507.93 400.62 512.29 428.3 536.66 428.3 540.73 400.62 507.93 400.62" style="fill:#FF725E"></polygon><path d="M541.94,400.62c0,.15-7.63.26-17,.26s-17-.11-17-.26,7.63-.26,17-.26S541.94,400.48,541.94,400.62Z" style="fill:#263238"></path></g><g id="freepik--device-2--inject-3"><rect x="682.71" y="65.03" width="12.01" height="130.55" transform="translate(-11 89.03) rotate(-7.34)" style="fill:#263238"></rect><rect x="693.89" y="104.42" width="7.9" height="49.42" transform="matrix(0.99, -0.13, 0.13, 0.99, -10.78, 90.18)" style="fill:#263238"></rect><path d="M697.05,154.17v0l-6.31-49h0l7.86-1v0l6.32,49h0Zm-6.26-49,6.31,49,7.78-1-6.31-49Z" style="fill:#263238"></path><polygon points="697.84 126.72 735.26 126.72 735.26 135.21 731.7 135.21 731.7 130.97 698.83 130.97 697.84 126.72" style="fill:#263238"></polygon><path d="M735.28,135.24h-3.61V131H698.81v0l-1-4.27h37.48Zm-3.56-.05h3.51v-8.44H697.87l1,4.19h32.87Z" style="fill:#263238"></path><polygon points="699.67 112.47 713.52 127.99 709.62 129.13 697.84 116.88 699.67 112.47" style="fill:#263238"></polygon><path d="M709.61,129.16h0l-11.79-12.27h0l1.85-4.45,0,0L713.56,128l0,0Zm-11.75-12.29,11.76,12.23,3.85-1.12-13.79-15.47Z" style="fill:#263238"></path><path d="M698.78,141.59a22.29,22.29,0,0,0,21.92-11.3c.38-.71-.7-1.34-1.08-.63a21.08,21.08,0,0,1-20.84,10.68c-.79-.09-.79,1.16,0,1.25Z" style="fill:#263238"></path><path d="M701.17,147.65a20.08,20.08,0,0,0,7,22.62c2.23,1.71,4.72,3.16,6.66,5.23,2.6,2.76,2.83,6.09,1.88,9.65s-2.35,7.12-3.19,10.79c-1.46,6.46-1.82,13.53,1.21,19.61,2.76,5.56,8.18,10.07,14.61,10a.63.63,0,0,0,0-1.25c-5.88,0-10.76-4.07-13.37-9.1-3.22-6.19-2.59-13.55-1-20.11.85-3.42,2.18-6.69,3-10.1.72-2.88.76-5.88-.82-8.48-2.73-4.49-8.19-6.33-11.51-10.29A19.11,19.11,0,0,1,702.37,148c.27-.76-.94-1.09-1.2-.34Z" style="fill:#263238"></path><path d="M700.71,174.61a1,1,0,0,1-.07-.27c0-.22-.09-.48-.15-.82-.12-.76-.3-1.81-.52-3.15-.43-2.78-1-6.74-1.78-11.61-1.46-9.82-3.37-23.39-5.27-38.41s-3.43-28.64-4.46-38.51c-.48-4.91-.88-8.89-1.16-11.69-.12-1.35-.21-2.42-.28-3.18l-.06-.83a1.07,1.07,0,0,1,0-.29,1.18,1.18,0,0,1,.06.28l.11.83c.09.76.21,1.82.38,3.17.31,2.79.76,6.77,1.32,11.67,1.12,9.86,2.71,23.47,4.61,38.49s3.74,28.59,5.11,38.41c.68,4.89,1.23,8.85,1.62,11.64.18,1.34.32,2.4.43,3.16,0,.34.07.61.09.83A1.19,1.19,0,0,1,700.71,174.61Z" style="fill:#455a64"></path><path d="M660.3,115c0,.14-7.71-1.34-17.16-3.31s-17.08-3.69-17-3.83,7.71,1.34,17.16,3.32S660.33,114.81,660.3,115Z" style="fill:#455a64"></path><path d="M669.81,134.24c0,.14-8.84,2.14-19.81,4.47s-19.9,4.11-19.93,4,8.84-2.15,19.82-4.48S669.78,134.1,669.81,134.24Z" style="fill:#455a64"></path><path d="M676.41,159.32c.08.12-9.53,6.21-21.45,13.58S633.3,186.17,633.23,186s9.52-6.2,21.45-13.58S676.34,159.2,676.41,159.32Z" style="fill:#455a64"></path><rect x="722.56" y="200.47" width="16.22" height="43.34" style="fill:#263238"></rect><path d="M738.77,243.82s0-.09,0-.23,0-.38,0-.64c0-.59,0-1.4,0-2.44,0-2.15,0-5.22-.07-9,0-7.72-.07-18.51-.12-31l.25.25H722.56c.51-.52.14-.13.26-.25h0v3.17c0,1.06,0,2.11,0,3.15V213c0,4,0,7.9,0,11.58,0,7.34,0,13.89-.06,19.28l-.17-.18,11.84.1,3.23,0,.84,0a1,1,0,0,1,.3,0h-.26l-.82,0-3.18.05-12,.09h-.18v-.18c0-5.39,0-11.94-.06-19.28,0-3.68,0-7.55,0-11.58v-9.3c0-.53,0-1.06,0-1.59v-1.58h0l.27-.27H739v.25c0,12.55-.08,23.4-.11,31.16,0,3.81-.06,6.86-.07,9,0,1,0,1.81,0,2.38,0,.25,0,.45,0,.61S738.78,243.82,738.77,243.82Z" style="fill:#455a64"></path><path d="M701.19,146c2.95,6.69,7.35,15.09,15.9,14.85,8.07-.22,10.21-9.17,11-15.62a68.53,68.53,0,0,0,0-16.69c-.1-.79-1.35-.8-1.25,0a68.77,68.77,0,0,1,.36,12.83,41.34,41.34,0,0,1-2,11.2c-1.14,3.15-3.27,6.12-6.73,6.86s-7.32-.92-9.84-3.37c-3-2.94-4.77-6.89-6.44-10.69-.33-.73-1.4-.1-1.08.63Z" style="fill:#263238"></path></g><g id="freepik--device-1--inject-3"><rect x="234" y="215.75" width="6.8" height="199.71" style="fill:#e0e0e0"></rect><path d="M240.8,415.46s0-.35,0-1,0-1.7,0-3c0-2.66,0-6.57,0-11.6,0-10.07,0-24.64-.08-42.67,0-36-.06-85.93-.11-141.38l.26.26H234l.26-.26c0,96.73-.08,177.9-.19,199.71l-.07-.06,5.13,0,1.67,0s-.51,0-1.63,0l-5.17,0h-.06v-.07c-.11-21.81-.2-103-.2-199.71v-.26h7.33v.26c0,55.52-.07,105.48-.1,141.57,0,18-.06,32.55-.08,42.61,0,5,0,8.89,0,11.54,0,1.31,0,2.3,0,3S240.8,415.46,240.8,415.46Z" style="fill:#263238"></path><path d="M212.57,417.54h52.68a4.14,4.14,0,0,0-4.14-4.15H216.72a4.15,4.15,0,0,0-4.15,4.15Z" style="fill:#e0e0e0"></path><path d="M256.15,421.35a5.89,5.89,0,1,0,5.89-5.89A5.89,5.89,0,0,0,256.15,421.35Z" style="fill:#263238"></path><path d="M207.14,421.35a5.89,5.89,0,1,0,5.89-5.89A5.89,5.89,0,0,0,207.14,421.35Z" style="fill:#263238"></path><path d="M233,421.39a5.89,5.89,0,1,0,5.89-5.89A5.89,5.89,0,0,0,233,421.39Z" style="fill:#263238"></path><rect x="213.32" y="152.08" width="51.88" height="64.24" transform="translate(478.53 368.41) rotate(180)" style="fill:#e0e0e0"></rect><rect x="228.55" y="152.08" width="36.65" height="64.37" transform="translate(493.75 368.54) rotate(180)" style="fill:#f5f5f5"></rect><rect x="233.21" y="158.29" width="27.37" height="27.37" style="fill:#fff"></rect><path d="M233.21,185.67a2.76,2.76,0,0,1,0-.48q0-.54,0-1.44c0-1.32,0-3.19-.06-5.54,0-4.85-.07-11.71-.12-19.92v-.23h.24l27.37,0,.27.28h0v7.36c0,2.41,0,4.78,0,7.07,0,4.6,0,8.94,0,12.92v.23h-.23l-19.92-.12-5.53-.06-1.45,0a3.81,3.81,0,0,1-.47,0l.52,0,1.49,0,5.59-.06,19.77-.12-.23.24c0-4,0-8.32,0-12.92,0-2.29,0-4.66,0-7.07v-7.36h0l.27.26-27.37,0,.23-.24c-.05,8.15-.09,15-.12,19.77,0,2.38,0,4.26-.06,5.59,0,.62,0,1.12,0,1.49S233.21,185.66,233.21,185.67Z" style="fill:#263238"></path><path d="M214.21,152.08c0-.15,11.39-.27,25.43-.27s25.42.12,25.42.27-11.38.27-25.42.27S214.21,152.23,214.21,152.08Z" style="fill:#263238"></path><path d="M213.32,216.33c-.15,0-.27-14.28-.27-31.88s.12-31.88.27-31.88.27,14.27.27,31.88S213.47,216.33,213.32,216.33Z" style="fill:#263238"></path><path d="M228.55,216.33c-.15,0-.27-14.28-.27-31.88s.12-31.88.27-31.88.27,14.27.27,31.88S228.7,216.33,228.55,216.33Z" style="fill:#263238"></path><rect x="256.38" y="190.99" width="4.2" height="4.2" transform="translate(516.96 386.18) rotate(180)" style="fill:#455a64"></rect><rect x="250.59" y="190.99" width="4.2" height="4.2" transform="translate(505.37 386.18) rotate(180)" style="fill:#455a64"></rect><rect x="244.79" y="190.99" width="4.2" height="4.2" transform="translate(493.78 386.18) rotate(180)" style="fill:#455a64"></rect><rect x="239" y="190.99" width="4.2" height="4.2" transform="translate(482.2 386.18) rotate(180)" style="fill:#455a64"></rect><rect x="233.21" y="190.99" width="4.2" height="4.2" transform="translate(470.61 386.18) rotate(180)" style="fill:#455a64"></rect><rect x="256.38" y="196.56" width="4.2" height="4.2" transform="translate(516.96 397.31) rotate(180)" style="fill:#455a64"></rect><rect x="250.59" y="196.56" width="4.2" height="4.2" transform="translate(505.37 397.31) rotate(180)" style="fill:#455a64"></rect><rect x="244.79" y="196.56" width="4.2" height="4.2" transform="translate(493.78 397.31) rotate(180)" style="fill:#455a64"></rect><rect x="239" y="196.56" width="4.2" height="4.2" transform="translate(482.2 397.31) rotate(180)" style="fill:#455a64"></rect><rect x="233.21" y="196.56" width="4.2" height="4.2" transform="translate(470.61 397.31) rotate(180)" style="fill:#455a64"></rect><rect x="256.38" y="202.12" width="4.2" height="4.2" transform="translate(516.96 408.45) rotate(180)" style="fill:#455a64"></rect><rect x="250.59" y="202.12" width="4.2" height="4.2" transform="translate(505.37 408.45) rotate(180)" style="fill:#455a64"></rect><rect x="244.79" y="202.12" width="4.2" height="4.2" transform="translate(493.78 408.45) rotate(180)" style="fill:#455a64"></rect><rect x="233.21" y="202.12" width="9.99" height="4.2" transform="translate(476.4 408.45) rotate(180)" style="fill:#FF725E"></rect><path d="M234.58,172.43a1.6,1.6,0,0,1,.45-.13,11.46,11.46,0,0,1,1.31-.23,7.53,7.53,0,0,1,2.13,0,4.38,4.38,0,0,1,2.53,1.29,3.31,3.31,0,0,1,.78,1.51,7.13,7.13,0,0,1,.12,1.79,11.14,11.14,0,0,0,0,1.83,3.29,3.29,0,0,0,.76,1.66,1.4,1.4,0,0,0,1.61.39,2.8,2.8,0,0,0,1.24-1.5,17.46,17.46,0,0,0,1-4.37c.21-1.54,0-3,.18-4.59a3.76,3.76,0,0,1,2.56-3.45,2.38,2.38,0,0,1,2.07.52,4.32,4.32,0,0,1,1.16,1.59c.5,1.15.67,2.27,1.15,3.15a4,4,0,0,0,1.9,1.8,4.59,4.59,0,0,0,2,.45,6.42,6.42,0,0,0,1.73-.32,1.4,1.4,0,0,1-.41.23,4,4,0,0,1-1.31.3,4.8,4.8,0,0,1-2.11-.38,4.29,4.29,0,0,1-2.11-1.9c-.53-.94-.73-2.09-1.21-3.15a4,4,0,0,0-1-1.4,1.92,1.92,0,0,0-1.66-.41,2.68,2.68,0,0,0-1.5,1.11,4.15,4.15,0,0,0-.66,1.93c-.14,1.41.05,3-.16,4.58a17.69,17.69,0,0,1-1.1,4.52,3.25,3.25,0,0,1-1.51,1.76,1.88,1.88,0,0,1-2.18-.53,3.74,3.74,0,0,1-.87-1.91,11.23,11.23,0,0,1,0-1.92,4,4,0,0,0-.74-3,4.13,4.13,0,0,0-2.31-1.24,7.35,7.35,0,0,0-2-.09C235.22,172.37,234.58,172.47,234.58,172.43Z" style="fill:#FF725E"></path><rect x="215.88" y="251.17" width="46.72" height="11.42" style="fill:#e0e0e0"></rect><path d="M230.11,262.45a51.73,51.73,0,0,1,0-10.36,51.73,51.73,0,0,1,0,10.36Z" style="fill:#263238"></path><path d="M262.11,251.16c0,.15-10.36.26-23.13.26s-23.12-.11-23.12-.26,10.35-.26,23.12-.26S262.11,251,262.11,251.16Z" style="fill:#263238"></path><path d="M263.19,262.84c0,.14-10.71.26-23.93.26s-23.92-.12-23.92-.26,10.71-.26,23.92-.26S263.19,262.69,263.19,262.84Z" style="fill:#263238"></path></g><g id="freepik--serum-bags--inject-3"><rect x="90.64" y="92.71" width="32.13" height="48.36" rx="2.98" style="fill:#f5f5f5"></rect><path d="M119.8,141.08a3.66,3.66,0,0,0,1.48-.46,3,3,0,0,0,1.2-1.41,6.83,6.83,0,0,0,.19-2.56c0-4,0-9.67-.08-16.7,0-3.53,0-7.39,0-11.54q0-3.1,0-6.42c0-1.11,0-2.23,0-3.36V96.91a15.51,15.51,0,0,0-.05-1.69,2.73,2.73,0,0,0-2.13-2.2,12.27,12.27,0,0,0-1.74-.06h-25A2.73,2.73,0,0,0,91,95.09,12,12,0,0,0,90.9,97v9.71c0,5.08,0,10,0,14.63s0,9.09,0,13.24c0,1,0,2.06,0,3.06a2.94,2.94,0,0,0,.91,2.51,2.81,2.81,0,0,0,1.16.63,4.91,4.91,0,0,0,1.34.09H97l16.7.09,4.54,0,1.18,0a2.18,2.18,0,0,1,.41,0l-.41,0-1.18,0-4.54.05-16.7.08H94.26a5.55,5.55,0,0,1-1.44-.1,3.19,3.19,0,0,1-1.33-.71,3.36,3.36,0,0,1-1.06-2.81v-3.06c0-4.15,0-8.58,0-13.24s0-9.55,0-14.63c0-2.53,0-5.12,0-7.74V97a13,13,0,0,1,.08-2,3.26,3.26,0,0,1,3.16-2.52h25a11.58,11.58,0,0,1,1.84.07,3.24,3.24,0,0,1,2.5,2.6,11.85,11.85,0,0,1,.05,1.77v1.72c0,1.13,0,2.25,0,3.36,0,2.21,0,4.35,0,6.42,0,4.15,0,8,0,11.54,0,7-.06,12.73-.08,16.7a7.21,7.21,0,0,1-.26,2.62,3,3,0,0,1-1.29,1.44,2.7,2.7,0,0,1-1.13.36A1.71,1.71,0,0,1,119.8,141.08Z" style="fill:#263238"></path><path d="M176.67,86.85l-.38,0a8.28,8.28,0,0,1-5.15-3,3.76,3.76,0,0,0-2.81-1.27H115.09a4.67,4.67,0,0,0-3.2,1.28c-1.42,1.33-3.61,2.92-6,2.92-3,0-5.14-2.67-6-5.31l2.54-.77c.42,1.38,1.67,3.43,3.41,3.43,1.17,0,2.64-.78,4.16-2.2a7.33,7.33,0,0,1,5-2h53.24a6.4,6.4,0,0,1,4.79,2.16,5.88,5.88,0,0,0,3.45,2.13c1.41.14,3.12-3.19,3.8-5.66l2.56.71C182.71,80.05,180.72,86.85,176.67,86.85Z" style="fill:#e0e0e0"></path><rect x="135.87" y="65.34" width="6.91" height="349.33" style="fill:#e0e0e0"></rect><path d="M135.87,414.66s0-.59,0-1.77,0-2.95,0-5.26c0-4.63,0-11.46,0-20.25,0-17.62-.05-43.12-.08-74.67,0-63.16-.07-150.52-.11-247.37v-.26h7.44v.26c-.11,173.25-.19,317.53-.21,349.32v.06h-.05l-5.21,0c-1.15,0-1.71,0-1.71,0l6.92-.05,0,.05c0-31.79-.11-176.07-.21-349.32l.26.26h-6.92l.26-.26c0,96.77-.08,184.07-.1,247.17,0,31.58-.06,57.1-.08,74.73,0,8.82,0,15.67,0,20.32,0,2.32,0,4.09,0,5.29S135.87,414.66,135.87,414.66Z" style="fill:#263238"></path><path d="M112.09,418.39h53.56a4.2,4.2,0,0,0-4.21-4.21H116.3a4.21,4.21,0,0,0-4.21,4.21Z" style="fill:#e0e0e0"></path><path d="M156.4,422.27a6,6,0,1,0,6-6A6,6,0,0,0,156.4,422.27Z" style="fill:#263238"></path><path d="M106.57,422.27a6,6,0,1,0,6-6A6,6,0,0,0,106.57,422.27Z" style="fill:#263238"></path><path d="M132.88,422.31a6,6,0,1,0,6-6A6,6,0,0,0,132.88,422.31Z" style="fill:#263238"></path><path d="M141.24,81.82c-.07.11-.5-.16-.43-.72s.6-.69.63-.56-.14.34-.17.63S141.33,81.73,141.24,81.82Z" style="fill:#263238"></path><path d="M135.87,99.92c-.12,0-.23-6-.23-13.5s.11-13.5.23-13.5.23,6,.23,13.5S136,99.92,135.87,99.92Z" style="fill:#263238"></path><rect x="94.42" y="113.4" width="25.36" height="23.97" rx="2.13" style="fill:#FF725E"></rect><rect x="99.62" y="120.39" width="16.08" height="4.99" style="fill:#fff"></rect><path d="M108.42,95.54a1.79,1.79,0,1,1-1.79-1.8A1.79,1.79,0,0,1,108.42,95.54Z" style="fill:#263238"></path><path d="M107.27,96.05A35.7,35.7,0,0,0,107,83.26c-.17-.79-1.37-.46-1.21.33a34.11,34.11,0,0,1,.33,12.13c-.12.79,1.08,1.12,1.2.33Z" style="fill:#263238"></path><rect x="161.09" y="92.71" width="32.13" height="48.36" rx="2.98" style="fill:#f5f5f5"></rect><path d="M190.25,141.08a3.66,3.66,0,0,0,1.48-.46,3,3,0,0,0,1.2-1.41,7,7,0,0,0,.2-2.56c0-4,0-9.67-.09-16.7,0-3.53,0-7.39,0-11.54,0-2.07,0-4.21,0-6.42,0-1.11,0-2.23,0-3.36V96.91a15.51,15.51,0,0,0-.05-1.69,2.73,2.73,0,0,0-2.12-2.2,12.36,12.36,0,0,0-1.75-.06h-25a2.74,2.74,0,0,0-2.66,2.11,12,12,0,0,0-.07,1.92v9.71c0,5.08,0,10,0,14.63s0,9.09,0,13.24c0,1,0,2.06,0,3.06a3,3,0,0,0,.92,2.51,2.75,2.75,0,0,0,1.16.63,4.91,4.91,0,0,0,1.34.09h2.7l16.71.09,4.54,0,1.18,0a2.12,2.12,0,0,1,.4,0l-.4,0-1.18,0-4.54.05-16.71.08h-2.7a5.49,5.49,0,0,1-1.44-.1,3.13,3.13,0,0,1-1.33-.71,3.33,3.33,0,0,1-1.06-2.81c0-1,0-2,0-3.06,0-4.15,0-8.58,0-13.24s0-9.55,0-14.63V97a12,12,0,0,1,.09-2,3.25,3.25,0,0,1,3.16-2.52h25a11.71,11.71,0,0,1,1.85.07,3.25,3.25,0,0,1,2.5,2.6,13.29,13.29,0,0,1,0,1.77V102c0,2.21,0,4.35,0,6.42,0,4.15,0,8,0,11.54,0,7-.06,12.73-.08,16.7a6.79,6.79,0,0,1-.26,2.62,3.07,3.07,0,0,1-1.28,1.44,2.74,2.74,0,0,1-1.14.36A1.74,1.74,0,0,1,190.25,141.08Z" style="fill:#263238"></path><rect x="164.87" y="113.4" width="25.36" height="23.97" rx="2.13" style="fill:#e0e0e0"></rect><rect x="170.08" y="120.39" width="16.08" height="4.99" style="fill:#fff"></rect><path d="M178.88,95.54a1.8,1.8,0,1,1-1.79-1.8A1.79,1.79,0,0,1,178.88,95.54Z" style="fill:#263238"></path><path d="M177.73,96.05a35.93,35.93,0,0,0-.33-12.79c-.16-.79-1.37-.46-1.2.33a34.11,34.11,0,0,1,.32,12.13c-.12.79,1.08,1.12,1.21.33Z" style="fill:#263238"></path><path d="M187.31,110c.22.19-3.56,4-8.36,8.59-2.4,2.28-4.6,4.32-6.21,5.77a23.86,23.86,0,0,1-2.69,2.28,23.31,23.31,0,0,1,2.43-2.54c1.55-1.53,3.71-3.6,6.11-5.89Z" style="fill:#263238"></path><path d="M186.83,106.56a100.65,100.65,0,0,1-7.79,6.52,97.33,97.33,0,0,1-8.12,6.11,99.77,99.77,0,0,1,7.8-6.52A96.32,96.32,0,0,1,186.83,106.56Z" style="fill:#263238"></path></g><g id="freepik--Bed--inject-3"><circle cx="160.42" cy="416.51" r="12.05" style="fill:#263238"></circle><path d="M167.47,411.91V398.09H145.94v10.79a4.8,4.8,0,0,0,4.8,4.81h1.75a8.4,8.4,0,0,0-.46,3.63,8.55,8.55,0,0,0,8.52,7.61,8.42,8.42,0,0,0,6.92-13Z" style="fill:#e0e0e0"></path><path d="M163.93,416.51a3.51,3.51,0,1,1-3.51-3.51A3.51,3.51,0,0,1,163.93,416.51Z" style="fill:#455a64"></path><rect x="62.63" y="331.2" width="364.62" height="21.26" style="fill:#e0e0e0"></rect><rect x="76.11" y="331.34" width="364.62" height="21.26" style="fill:#e0e0e0"></rect><g style="opacity:0.30000000000000004"><rect x="62.63" y="331.2" width="364.62" height="21.26"></rect></g><rect x="38.05" y="316.48" width="404.3" height="14.73" style="fill:#e0e0e0"></rect><path d="M448.05,345h0a7.31,7.31,0,0,1-7.3-7.36l.7-100.8a7.31,7.31,0,0,1,7.31-7.26h0a7.3,7.3,0,0,1,7.3,7.36l-.7,100.8A7.31,7.31,0,0,1,448.05,345Z" style="fill:#e0e0e0"></path><path d="M448.05,345a9.14,9.14,0,0,0,2.45-.49A7.5,7.5,0,0,0,453,343a7.24,7.24,0,0,0,2-3.53,9.49,9.49,0,0,0,.21-2.43c0-.87,0-1.78,0-2.74,0-1.9,0-4,0-6.19,0-4.45,0-9.52.07-15.11.06-11.21.13-24.54.21-39.34.05-7.4.1-15.17.15-23.22q0-6,.08-12.29a10.23,10.23,0,0,0-.24-3,7.06,7.06,0,0,0-6.79-5.19,7.17,7.17,0,0,0-5.39,2.51,7,7,0,0,0-1.4,2.68,11.3,11.3,0,0,0-.27,3q0,6.24-.09,12.29c-.06,8.05-.12,15.82-.17,23.23-.13,14.8-.24,28.13-.33,39.33-.06,5.6-.11,10.66-.15,15.11q0,3.33-.06,6.2,0,1.42,0,2.73a9.2,9.2,0,0,0,.19,2.44,7.17,7.17,0,0,0,2,3.52,7.32,7.32,0,0,0,2.54,1.59,9.11,9.11,0,0,0,2.44.49h-.64a6.77,6.77,0,0,1-1.84-.38,7.33,7.33,0,0,1-4.71-5.17,9.51,9.51,0,0,1-.22-2.48c0-.87,0-1.78,0-2.73q0-2.86,0-6.2c0-4.45,0-9.52.07-15.11.06-11.2.13-24.53.22-39.34,0-7.4.09-15.17.14-23.23q0-6,.09-12.29a11.08,11.08,0,0,1,.28-3.17,7.55,7.55,0,0,1,13.08-2.86,7.33,7.33,0,0,1,1.5,2.87,10.75,10.75,0,0,1,.26,3.18q0,6.24-.09,12.28c-.06,8.05-.12,15.82-.18,23.23-.12,14.8-.23,28.13-.33,39.33,0,5.59-.1,10.66-.14,15.11,0,2.22-.05,4.29-.07,6.2q0,1.42,0,2.73a9.55,9.55,0,0,1-.23,2.48,7.33,7.33,0,0,1-4.71,5.17,6.7,6.7,0,0,1-1.84.38Z" style="fill:#263238"></path><rect x="452.17" y="314.97" width="11.81" height="33.54" style="fill:#455a64"></rect><path d="M447.53,357.44,427.34,338a13.56,13.56,0,0,0-9.4-3.79H363.76a17.68,17.68,0,0,0-11.54,4.27c-5,4.31-13.09,11.33-21.28,18.47-9.89,8.62-3.8,24.89,9.32,24.89h97.43A14.19,14.19,0,0,0,447.53,357.44Zm-78.59,9.3a5.27,5.27,0,0,1-5.26,5.26H343.35a4.31,4.31,0,0,1-2.93-7.47l21.27-19.76a4.31,4.31,0,0,1,7.25,3.16Zm34.34.16a4.57,4.57,0,0,1-4.56,4.57H381.31a4.57,4.57,0,0,1-4.56-4.57V348.17a4.56,4.56,0,0,1,4.56-4.56h17.41a4.56,4.56,0,0,1,4.56,4.56Zm33.1,5.1H416.05a5.27,5.27,0,0,1-5.26-5.26V347.93a4.31,4.31,0,0,1,7.24-3.16l21.28,19.76A4.31,4.31,0,0,1,436.38,372Z" style="fill:#e0e0e0"></path><path d="M447.53,357.44,427.34,338a13.56,13.56,0,0,0-9.4-3.79H363.76a17.68,17.68,0,0,0-11.54,4.27c-5,4.31-13.09,11.33-21.28,18.47-9.89,8.62-3.8,24.89,9.32,24.89h97.43A14.19,14.19,0,0,0,447.53,357.44Zm-78.59,9.3a5.27,5.27,0,0,1-5.26,5.26H343.35a4.31,4.31,0,0,1-2.93-7.47l21.27-19.76a4.31,4.31,0,0,1,7.25,3.16Zm34.34.16a4.57,4.57,0,0,1-4.56,4.57H381.31a4.57,4.57,0,0,1-4.56-4.57V348.17a4.56,4.56,0,0,1,4.56-4.56h17.41a4.56,4.56,0,0,1,4.56,4.56Zm33.1,5.1H416.05a5.27,5.27,0,0,1-5.26-5.26V347.93a4.31,4.31,0,0,1,7.24-3.16l21.28,19.76A4.31,4.31,0,0,1,436.38,372Z" style="fill:none"></path><path d="M436.38,372s.34,0,1-.17a4.13,4.13,0,0,0,2.28-1.47,4.25,4.25,0,0,0,.69-4.09l-.27-.58-.37-.54a9.38,9.38,0,0,0-1-1l-2.3-2.12-11.31-10.42-6.66-6.17a5.7,5.7,0,0,0-1.85-1.31,4.07,4.07,0,0,0-5.39,2.87,13.7,13.7,0,0,0-.11,2.42v7.26c0,3.15,0,6.19,0,9.08a8.9,8.9,0,0,0,.13,2.09,4.88,4.88,0,0,0,.8,1.8,5.1,5.1,0,0,0,3.13,2,10.4,10.4,0,0,0,1.86.1h1.82l3.44,0,10.37.08,2.81.05.74,0,.25,0-.25,0-.74,0-2.81.05-10.37.08-3.44,0H417a9.16,9.16,0,0,1-1.94-.09,5.52,5.52,0,0,1-3.42-2.18,5.34,5.34,0,0,1-.89-2,9.58,9.58,0,0,1-.15-2.19c0-2.89,0-5.93,0-9.08,0-1.57,0-3.18,0-4.8v-2.46a13,13,0,0,1,.13-2.54,4.58,4.58,0,0,1,6.08-3.23,6.1,6.1,0,0,1,2,1.42l6.65,6.19,11.23,10.5,2.27,2.14a12.62,12.62,0,0,1,1,1c.13.21.26.4.39.6l.27.63a4.46,4.46,0,0,1-.8,4.31,4.14,4.14,0,0,1-2.42,1.44A3.31,3.31,0,0,1,436.38,372Z" style="fill:#263238"></path><path d="M403.28,366.9s0-.08,0-.26,0-.45,0-.76c0-.71,0-1.7-.05-2.94,0-2.6-.05-6.28-.08-10.82,0-1.14,0-2.34,0-3.58a4.4,4.4,0,0,0-4.87-4.7H381.84a4.76,4.76,0,0,0-2.35.41,4.32,4.32,0,0,0-2.48,3.89v10.17c0,1.64,0,3.26,0,4.84v2.34a12.59,12.59,0,0,0,.08,2.24,4.35,4.35,0,0,0,2.53,3.13,4.76,4.76,0,0,0,2,.35h2l7.47,0,6.17,0a11.72,11.72,0,0,0,2.49-.1,4.53,4.53,0,0,0,3.36-3.31c.15-.65.13-1,.16-1a3.35,3.35,0,0,1-.06,1,4.56,4.56,0,0,1-1.49,2.54,4.66,4.66,0,0,1-1.92,1,11.62,11.62,0,0,1-2.54.15l-6.17,0-7.47,0h-2a5.28,5.28,0,0,1-2.16-.38,4.8,4.8,0,0,1-2.82-3.45,13.22,13.22,0,0,1-.1-2.34c0-.77,0-1.55,0-2.34v-4.84c0-3.29,0-6.69,0-10.17a4.83,4.83,0,0,1,2.78-4.36,5.38,5.38,0,0,1,2.57-.46h2.48l9.48,0h4.41a5,5,0,0,1,3.94,1.46,4.87,4.87,0,0,1,1.33,3.7c0,1.24,0,2.44,0,3.58,0,4.54-.06,8.22-.08,10.82,0,1.24,0,2.23-.05,2.94,0,.31,0,.56,0,.76A.82.82,0,0,1,403.28,366.9Z" style="fill:#263238"></path><path d="M368.94,366.74a.87.87,0,0,1,0-.25c0-.2,0-.44,0-.74,0-.68,0-1.63,0-2.82,0-2.49,0-6-.09-10.36,0-1.1,0-2.25,0-3.44a17.94,17.94,0,0,0-.06-1.8,4.31,4.31,0,0,0-.63-1.67,4.17,4.17,0,0,0-3.18-1.8,4,4,0,0,0-1.91.34,6.38,6.38,0,0,0-1.64,1.25l-13.79,12.82c-2.43,2.28-4.86,4.49-7.12,6.64a4.06,4.06,0,0,0,2,6.74,10.9,10.9,0,0,0,2.08.11h6.08l7.16,0,5.9,0a5.23,5.23,0,0,0,5.12-4.15c.13-.62.11-1,.15-1a3.17,3.17,0,0,1-.05,1,5.14,5.14,0,0,1-1.2,2.56,5.37,5.37,0,0,1-4,1.86l-5.9,0-7.16,0h-6.08a10.88,10.88,0,0,1-2.18-.11,4.55,4.55,0,0,1-2.31-7.56c2.3-2.2,4.69-4.38,7.14-6.67L361,345.09a6.84,6.84,0,0,1,1.77-1.31,4.33,4.33,0,0,1,2.14-.38,4.63,4.63,0,0,1,3.51,2,4.78,4.78,0,0,1,.69,1.86c.06.65,0,1.25,0,1.85,0,1.19,0,2.34,0,3.44,0,4.34-.06,7.87-.08,10.36,0,1.19,0,2.14-.05,2.82,0,.3,0,.54,0,.74A1.27,1.27,0,0,1,368.94,366.74Z" style="fill:#263238"></path><path d="M447.53,357.44s.19.19.53.56l.65.7.41.46.39.59A13.12,13.12,0,0,1,452,368a15.22,15.22,0,0,1-.36,3,16.28,16.28,0,0,1-1.16,3.12,14.23,14.23,0,0,1-4.92,5.6A14.61,14.61,0,0,1,437.3,382l-9.65,0-47.51.05-28.06,0h-7.36a42.17,42.17,0,0,1-7.5-.34,14.43,14.43,0,0,1-7.07-24.38,16.62,16.62,0,0,1,1.38-1.29l1.42-1.23,2.82-2.44,5.56-4.82,10.83-9.39a18.08,18.08,0,0,1,6.12-3.39,19.88,19.88,0,0,1,6.77-.85l47.52.06h4.95a14,14,0,0,1,4.67.69,13.75,13.75,0,0,1,4,2.07,40.54,40.54,0,0,1,3.08,2.83c3.85,3.74,7.18,6.95,9.9,9.59l6.24,6.07,1.61,1.59c.37.36.54.55.54.55s-.2-.16-.57-.51l-1.65-1.55-6.31-6-10-9.52a37.59,37.59,0,0,0-3.07-2.79,13.21,13.21,0,0,0-3.88-2,13.82,13.82,0,0,0-4.57-.66h-4.95l-47.52.06a19.35,19.35,0,0,0-6.62.84,17.53,17.53,0,0,0-5.95,3.3L341.66,348l-5.56,4.83-2.81,2.44-1.42,1.23a14.91,14.91,0,0,0-1.36,1.27,13.92,13.92,0,0,0,6.81,23.51,42.39,42.39,0,0,0,7.4.33h35.42l47.51.06,9.65,0a14.43,14.43,0,0,0,8.08-2.25,14.06,14.06,0,0,0,4.85-5.48,13.29,13.29,0,0,0,1.54-6,13.15,13.15,0,0,0-2.35-8.17l-.37-.59-.4-.47L448,358C447.69,357.65,447.53,357.44,447.53,357.44Z" style="fill:#263238"></path><rect x="99.81" y="386.57" width="312.78" height="10.23" style="fill:#e0e0e0"></rect><rect x="140.97" y="381.86" width="43.66" height="18.58" style="fill:#e0e0e0"></rect><path d="M184.63,400.44s0-.12,0-.34l0-1c0-.89,0-2.13,0-3.72,0-3.23-.06-7.85-.1-13.54l.18.19-43.65.07c-.24.24.31-.31.26-.25h0v9.55c0,3.11,0,6.12,0,9l-.24-.25,31.25.12,9.09.07,2.45,0,.63,0h.23s-.06,0-.19,0h-.61l-2.4,0-9,.06-31.42.12h-.25v-.25c0-2.89,0-5.9,0-9v-9.55h0l.27-.27,43.65.08h.19v.18c0,5.74-.08,10.4-.1,13.65,0,1.57,0,2.81-.05,3.68l0,.94A1.51,1.51,0,0,1,184.63,400.44Z" style="fill:#263238"></path><circle cx="394.43" cy="416.24" r="12.05" transform="translate(-136.57 632.75) rotate(-68.72)" style="fill:#263238"></circle><path d="M387.38,411.64V397.82h21.53v10.8a4.8,4.8,0,0,1-4.8,4.8h-1.75a8.45,8.45,0,0,1,.46,3.64,8.56,8.56,0,0,1-8.52,7.61,8.43,8.43,0,0,1-6.92-13Z" style="fill:#e0e0e0"></path><path d="M390.92,416.24a3.51,3.51,0,1,0,3.51-3.51A3.51,3.51,0,0,0,390.92,416.24Z" style="fill:#455a64"></path><rect x="368.94" y="381.86" width="43.66" height="18.58" style="fill:#e0e0e0"></rect><path d="M368.94,400.44a.91.91,0,0,1,0-.31l0-.94c0-.87,0-2.11,0-3.68,0-3.25-.06-7.91-.1-13.65v-.18h.19l43.65-.08c-.23-.23.32.32.26.27h0v9.55c0,3.11,0,6.12,0,9v.25h-.25l-31.42-.12-9-.06-2.4,0h-.61c-.13,0-.2,0-.19,0h.22l.64,0,2.45,0,9.09-.07,31.25-.12-.25.25v-9c0-1.56,0-3.13,0-4.73v-4.82h0c-.05-.06.49.49.26.25l-43.65-.07.18-.19c0,5.69-.07,10.31-.1,13.54,0,1.59,0,2.83,0,3.72l0,1C369,400.32,368.94,400.44,368.94,400.44Z" style="fill:#263238"></path><path d="M44.23,239.48H45.7a6.19,6.19,0,0,1,6.19,6.19v70.81a0,0,0,0,1,0,0H38a0,0,0,0,1,0,0V245.66A6.19,6.19,0,0,1,44.23,239.48Z" style="fill:#e0e0e0"></path><rect x="52.27" y="293.03" width="388.75" height="22.81" rx="4.64" style="fill:#455a64"></rect><path d="M51.89,280.6c.14,0,.26,11.54.26,25.77s-.12,25.77-.26,25.77-.26-11.53-.26-25.77S51.74,280.6,51.89,280.6Z" style="fill:#263238"></path><path d="M441,252.91c.14,0,.26,20.49.26,45.77s-.12,45.77-.26,45.77-.26-20.49-.26-45.77S440.88,252.91,441,252.91Z" style="fill:#263238"></path><path d="M257.72,334.23h-174c-12.78,0-18.65,13.54-9.39,23.31l19.74,20.54a13.53,13.53,0,0,0,9.4,3.78H234.22a17.68,17.68,0,0,0,11.54-4.27c5-4.31,13.72-13.28,21.36-21C276.21,347.4,272.57,334.23,257.72,334.23ZM109.2,369.52a4.31,4.31,0,0,1-7.47,2.93L82,351.18a4.31,4.31,0,0,1,3.16-7.25h18.81a5.27,5.27,0,0,1,5.26,5.26ZM144,368a4.57,4.57,0,0,1-4.57,4.56H122a4.56,4.56,0,0,1-4.56-4.56V349.25a4.56,4.56,0,0,1,4.56-4.56h17.41a4.57,4.57,0,0,1,4.57,4.56Zm81.52-1.09a4.57,4.57,0,0,1-4.56,4.57H203.54A4.57,4.57,0,0,1,199,366.9V348.17a4.56,4.56,0,0,1,4.56-4.56H221a4.56,4.56,0,0,1,4.56,4.56ZM261,350.09l-19.76,21.28a4.31,4.31,0,0,1-7.47-2.93V348.11a5.26,5.26,0,0,1,5.26-5.26h18.81A4.31,4.31,0,0,1,261,350.09Z" style="fill:#e0e0e0"></path><path d="M257.72,334.23h-174c-12.78,0-18.65,13.54-9.39,23.31l19.74,20.54a13.53,13.53,0,0,0,9.4,3.78H234.22a17.68,17.68,0,0,0,11.54-4.27c5-4.31,13.72-13.28,21.36-21C276.21,347.4,272.57,334.23,257.72,334.23ZM109.2,369.52a4.31,4.31,0,0,1-7.47,2.93L82,351.18a4.31,4.31,0,0,1,3.16-7.25h18.81a5.27,5.27,0,0,1,5.26,5.26ZM144,368a4.57,4.57,0,0,1-4.57,4.56H122a4.56,4.56,0,0,1-4.56-4.56V349.25a4.56,4.56,0,0,1,4.56-4.56h17.41a4.57,4.57,0,0,1,4.57,4.56Zm81.52-1.09a4.57,4.57,0,0,1-4.56,4.57H203.54A4.57,4.57,0,0,1,199,366.9V348.17a4.56,4.56,0,0,1,4.56-4.56H221a4.56,4.56,0,0,1,4.56,4.56ZM261,350.09l-19.76,21.28a4.31,4.31,0,0,1-7.47-2.93V348.11a5.26,5.26,0,0,1,5.26-5.26h18.81A4.31,4.31,0,0,1,261,350.09Z" style="fill:none"></path><path d="M261,350.09s.22-.26.53-.82a4.24,4.24,0,0,0,.49-2.67,4.29,4.29,0,0,0-2.54-3.27,6.41,6.41,0,0,0-2.68-.32l-3.13,0-7.16,0-4,0h-2.09a21,21,0,0,0-2.11.06,5,5,0,0,0-3.47,2.2,4.87,4.87,0,0,0-.77,2,19.06,19.06,0,0,0-.06,2.29v17.12c0,.8,0,1.62.05,2.34a4,4,0,0,0,6.63,2.41c4-4.13,7.51-8,10.51-11.18l7.12-7.54,1.95-2,.52-.52a1,1,0,0,1,.19-.17s0,.08-.15.2l-.48.56L258.5,353l-7,7.65c-3,3.22-6.44,7.07-10.47,11.3a4.37,4.37,0,0,1-4.4.84,4.53,4.53,0,0,1-3-3.54,21.91,21.91,0,0,1-.06-2.42c0-.8,0-1.61,0-2.42v-4.95c0-3.34,0-6.6,0-9.75a19,19,0,0,1,.07-2.37,5.71,5.71,0,0,1,.85-2.23,5.55,5.55,0,0,1,3.83-2.39,20,20,0,0,1,2.17-.06h6.07l7.16,0,3.13,0a6.78,6.78,0,0,1,2.79.38,4.49,4.49,0,0,1,2.63,3.51,4.29,4.29,0,0,1-.6,2.76,3,3,0,0,1-.44.58Q261,350.11,261,350.09Z" style="fill:#263238"></path><path d="M225.52,366.9a.82.82,0,0,1,0-.26c0-.2,0-.45,0-.76,0-.71,0-1.7,0-2.94,0-2.6,0-6.28-.09-10.82,0-1.14,0-2.34,0-3.58a4.42,4.42,0,0,0-4.88-4.7H204.07a4.78,4.78,0,0,0-2.35.41,4.32,4.32,0,0,0-2.48,3.89v10.17c0,1.64,0,3.26,0,4.84v2.34a13.61,13.61,0,0,0,.08,2.24,4.37,4.37,0,0,0,2.53,3.13,4.79,4.79,0,0,0,2,.35h2.05l7.47,0,6.16,0a11.69,11.69,0,0,0,2.49-.1,4.61,4.61,0,0,0,1.84-.91,4.55,4.55,0,0,0,1.52-2.4c.15-.65.13-1,.17-1a3.22,3.22,0,0,1-.07,1,4.5,4.5,0,0,1-1.49,2.54,4.68,4.68,0,0,1-1.91,1,11.71,11.71,0,0,1-2.55.15l-6.16,0-7.47,0h-2.05a5.28,5.28,0,0,1-2.16-.38,4.82,4.82,0,0,1-2.82-3.45,14.24,14.24,0,0,1-.1-2.34c0-.77,0-1.55,0-2.34v-4.84c0-3.29,0-6.69,0-10.17a4.84,4.84,0,0,1,2.78-4.36,5.38,5.38,0,0,1,2.57-.46h2.48l9.48,0h4.41a5,5,0,0,1,3.94,1.46,4.92,4.92,0,0,1,1.34,3.7c0,1.24,0,2.44,0,3.58,0,4.54-.06,8.22-.08,10.82,0,1.24,0,2.23-.05,2.94,0,.31,0,.56,0,.76A1.21,1.21,0,0,1,225.52,366.9Z" style="fill:#263238"></path><path d="M144,368a.9.9,0,0,1,0-.26c0-.2,0-.45,0-.77,0-.71,0-1.69-.05-2.94,0-2.59,0-6.28-.08-10.81,0-1.15,0-2.34,0-3.59a4.44,4.44,0,0,0-1.24-3.39,4.53,4.53,0,0,0-3.63-1.31h-4.41L125,345h-2.48a4.9,4.9,0,0,0-2.35.41,4.35,4.35,0,0,0-2.48,3.89v10.18c0,1.64,0,3.25,0,4.83v2.35a13.65,13.65,0,0,0,.08,2.24,4.36,4.36,0,0,0,2.53,3.12,4.62,4.62,0,0,0,2,.36h2l7.47,0,6.16,0a11.65,11.65,0,0,0,2.49-.11,4.47,4.47,0,0,0,1.84-.9,4.63,4.63,0,0,0,1.52-2.41c.15-.64.13-1,.17-1a3.65,3.65,0,0,1-.07,1,4.59,4.59,0,0,1-3.41,3.52,11,11,0,0,1-2.54.16l-6.16,0-7.47,0h-2a5.27,5.27,0,0,1-2.16-.37,4.86,4.86,0,0,1-2.82-3.46,14.12,14.12,0,0,1-.1-2.33c0-.77,0-1.56,0-2.35v-4.83c0-3.29,0-6.69,0-10.18a4.87,4.87,0,0,1,2.78-4.36,5.37,5.37,0,0,1,2.57-.45h16.37a5,5,0,0,1,3.94,1.47,4.9,4.9,0,0,1,1.34,3.69c0,1.25,0,2.44,0,3.59,0,4.53-.06,8.22-.08,10.81,0,1.25,0,2.23,0,2.94,0,.32,0,.57,0,.77S144,368,144,368Z" style="fill:#263238"></path><path d="M109.2,369.52a.79.79,0,0,1,0-.25l0-.73c0-.69,0-1.63,0-2.82,0-2.49,0-6-.09-10.37,0-1.09,0-2.24,0-3.43,0-.6,0-1.21,0-1.83a9.44,9.44,0,0,0-.1-1.85,5.07,5.07,0,0,0-3.83-3.94,9.42,9.42,0,0,0-2.08-.13l-9.08,0H86.64a12.85,12.85,0,0,0-2.43.12,4.06,4.06,0,0,0-2.87,5.38,5.7,5.7,0,0,0,1.31,1.85c2.14,2.31,4.21,4.54,6.17,6.67l10.43,11.3c.74.81,1.44,1.58,2.11,2.3a11.91,11.91,0,0,0,1,1l.55.37.58.26a4.29,4.29,0,0,0,4.09-.68,4.22,4.22,0,0,0,1.46-2.29c.15-.62.13-1,.17-1a3.37,3.37,0,0,1-.07,1,4.12,4.12,0,0,1-1.44,2.41,4.46,4.46,0,0,1-4.31.81l-.63-.28-.59-.39a12.64,12.64,0,0,1-1-1L99,369.76,88.47,358.53l-6.19-6.64a6.25,6.25,0,0,1-1.42-2,4.51,4.51,0,0,1-.21-2.52,4.56,4.56,0,0,1,3.45-3.56,13,13,0,0,1,2.54-.13H103a9.45,9.45,0,0,1,2.18.15,5.53,5.53,0,0,1,2,.9,5.47,5.47,0,0,1,2.18,3.42,9.8,9.8,0,0,1,.1,1.93c0,.62,0,1.23,0,1.83,0,1.19,0,2.34,0,3.43,0,4.35-.06,7.88-.08,10.37,0,1.19,0,2.13,0,2.82,0,.29,0,.54,0,.73A1.15,1.15,0,0,1,109.2,369.52Z" style="fill:#263238"></path><path d="M257.72,334.23s.39,0,1.16,0l1.44.07,2,.33a6.62,6.62,0,0,1,1.16.3l1.27.41c.44.15.86.41,1.33.62l.7.35c.22.14.44.31.66.47a10.56,10.56,0,0,1,4.36,6.08,11.84,11.84,0,0,1,.29,4.52,14.64,14.64,0,0,1-1.56,4.75,18.73,18.73,0,0,1-3.2,4.42l-4.11,4.2c-2.85,2.89-5.89,6-9.16,9.23-1.63,1.63-3.32,3.28-5.1,5a32.77,32.77,0,0,1-5.83,4.72,17.66,17.66,0,0,1-7.51,2.31c-2.7.11-5.42,0-8.21.07H210l-38.37,0-42.4,0H103.93a15.62,15.62,0,0,1-2.89-.21,13.85,13.85,0,0,1-5.39-2.21,12.71,12.71,0,0,1-2.22-1.91l-2-2.1c-1.35-1.39-2.69-2.79-4-4.2l-8.06-8.38-4-4.15a28.34,28.34,0,0,1-1.94-2.14c-.3-.37-.63-.73-.91-1.12l-.77-1.22-.39-.62-.29-.65-.6-1.32L70,350.5l-.2-.69-.09-.71a12.68,12.68,0,0,1,.35-5.68,12.93,12.93,0,0,1,7.32-8.18,14.25,14.25,0,0,1,2.67-.84c.45-.09.91-.2,1.36-.27l1.39-.1c1.84-.11,3.64,0,5.45,0h31.48l71.8.06,48.41.08,13.16.05,3.42,0,1.17,0-1.17,0-3.42,0-13.16.05-48.41.08-71.8.06H88.28c-1.8,0-3.63-.06-5.43.06l-1.34.09c-.44.07-.88.18-1.32.27a13.66,13.66,0,0,0-2.57.8,12.41,12.41,0,0,0-7,7.86,12.14,12.14,0,0,0-.34,5.46l.09.69.19.66.39,1.34.57,1.27.29.64.37.59.75,1.19c.27.38.6.73.89,1.09.58.74,1.25,1.42,1.91,2.11,1.33,1.37,2.66,2.76,4,4.15l8.06,8.38,4,4.2A29.12,29.12,0,0,0,96,379.27a13.08,13.08,0,0,0,5.18,2.12,14.55,14.55,0,0,0,2.8.21h67.68l38.37,0h17.39c2.78,0,5.54.06,8.18,0a17.45,17.45,0,0,0,7.36-2.25,32,32,0,0,0,5.77-4.66c1.78-1.65,3.47-3.31,5.11-4.92,3.28-3.23,6.33-6.32,9.18-9.21s5.77-5.39,7.3-8.52a14.78,14.78,0,0,0,1.56-4.67,11.65,11.65,0,0,0-.27-4.44,10.45,10.45,0,0,0-4.25-6c-.22-.15-.43-.32-.65-.46l-.69-.35c-.46-.22-.87-.47-1.31-.63l-1.25-.41a6,6,0,0,0-1.15-.31l-1.95-.36-1.43-.1Z" style="fill:#263238"></path><path d="M228.23,339.05c0,.15-31.64.26-70.65.26s-70.65-.11-70.65-.26,31.63-.26,70.65-.26S228.23,338.91,228.23,339.05Z" style="fill:#fff"></path><path d="M98.6,258.75A55.39,55.39,0,0,0,56.7,281c17.26,8.84,35.49,13.9,54.77,11.92a56.8,56.8,0,0,0,17.13-4.13,30.14,30.14,0,0,0,13.47-11.08A55.37,55.37,0,0,0,98.6,258.75Z" style="fill:#455a64"></path><path d="M140.91,277.59a5.31,5.31,0,0,1-.82.27c-.54.15-1.33.41-2.37.66a83.85,83.85,0,0,1-8.86,1.73,122.89,122.89,0,0,1-13.36,1.14c-5,.18-10.59.12-16.4-.08l-16.39-.62c-5-.16-9.57-.2-13.37-.12s-6.88.26-9,.44c-1.06.07-1.88.16-2.44.2a7.86,7.86,0,0,1-.86,0,5,5,0,0,1,.85-.15c.55-.07,1.37-.2,2.43-.3,2.12-.23,5.2-.46,9-.6s8.36-.12,13.4,0,10.57.38,16.38.58,11.35.27,16.38.12a130.16,130.16,0,0,0,13.32-1c3.77-.5,6.79-1.09,8.87-1.57,1-.22,1.84-.44,2.38-.56A4.67,4.67,0,0,1,140.91,277.59Z" style="fill:#263238"></path><rect x="312.41" y="273.6" width="122.75" height="19.43" rx="8.69" style="fill:#e0e0e0"></rect><path d="M433.71,282.69c0,.15-24.77.26-55.32.26s-55.31-.11-55.31-.26,24.76-.26,55.31-.26S433.71,282.55,433.71,282.69Z" style="fill:#263238"></path><rect x="333.94" y="262.07" width="64.72" height="11.53" rx="5.15" style="fill:#e0e0e0"></rect><path d="M397,273.55c0,.15-13.58.26-30.32.26s-30.33-.11-30.33-.26,13.58-.26,30.33-.26S397,273.41,397,273.55Z" style="fill:#263238"></path><path d="M393.82,267.94c0,.14-13.4.26-29.92.26s-29.93-.12-29.93-.26,13.4-.26,29.93-.26S393.82,267.8,393.82,267.94Z" style="fill:#263238"></path></g><g id="freepik--night-table--inject-3"><path d="M32.51,421.57a6.95,6.95,0,1,0,6.94-6.73A6.84,6.84,0,0,0,32.51,421.57Z" style="fill:#263238"></path><path d="M77.76,421.57a7,7,0,1,0,6.95-6.73A6.85,6.85,0,0,0,77.76,421.57Z" style="fill:#263238"></path><rect x="24.81" y="313.93" width="75.65" height="100.91" style="fill:#455a64"></rect><path d="M73.2,414.66c-.14,0-.26-22.54-.26-50.35S73.06,314,73.2,314s.26,22.54.26,50.36S73.34,414.66,73.2,414.66Z" style="fill:#263238"></path><path d="M100.44,319.64c0,.15-6.15.26-13.74.26S73,319.79,73,319.64s6.15-.26,13.74-.26S100.44,319.5,100.44,319.64Z" style="fill:#263238"></path><path d="M100.46,359.9c0,.15-6.08.26-13.58.26s-13.57-.11-13.57-.26,6.08-.26,13.57-.26S100.46,359.76,100.46,359.9Z" style="fill:#263238"></path><polygon points="82.84 319.64 84.92 321.87 94.37 321.87 95.92 319.64 82.84 319.64" style="fill:#263238"></polygon><rect x="28.88" y="317.78" width="39.33" height="65.56" rx="2.2" style="fill:#455a64"></rect><path d="M66,383.34s.18,0,.52-.09a2.16,2.16,0,0,0,1.6-1.91c0-.41,0-.88,0-1.38l0-3.46c0-5.24,0-12.77-.09-22.08s0-20.42,0-32.74v-1.15a4.17,4.17,0,0,0-.08-1.09,2,2,0,0,0-1.45-1.37,5.84,5.84,0,0,0-1.13-.05H31.08a1.92,1.92,0,0,0-1.81,1.25,3.11,3.11,0,0,0-.13,1.21v16.78c0,6.71,0,13.17,0,19.34s0,12,0,17.49c0,1.37,0,2.72,0,4v2.93a2.06,2.06,0,0,0,.17.86,2,2,0,0,0,1.24,1.11,7.38,7.38,0,0,0,1.78.09h3.58l22.07.09,6,0,1.56,0,.53,0-.53,0-1.56,0-6,.05-22.07.08h-4.5a3,3,0,0,1-1-.1,2.42,2.42,0,0,1-1.49-1.33,2.58,2.58,0,0,1-.2-1v-1c0-.65,0-1.31,0-2v-4c0-5.48,0-11.33,0-17.49s0-12.63,0-19.34c0-3.35,0-6.76,0-10.23V320.5a3.66,3.66,0,0,1,.16-1.4,2.46,2.46,0,0,1,2.3-1.58H65.31a7.55,7.55,0,0,1,1.23.06,2.45,2.45,0,0,1,1.81,1.71,4.44,4.44,0,0,1,.1,1.23v1.15c0,12.32,0,23.42-.06,32.74s-.06,16.84-.08,22.08l0,3.46c0,.5,0,1,0,1.39a2.24,2.24,0,0,1-1.72,1.95A1.64,1.64,0,0,1,66,383.34Z" style="fill:#263238"></path><path d="M100.46,414.84s0-.15,0-.46,0-.76,0-1.33c0-1.2,0-2.93,0-5.15,0-4.49,0-10.95-.09-18.92,0-16,0-38.05-.07-62.42V313.93l.26.25-53.89-.08-16-.08-4.3,0-1.11,0-.38,0,.38,0,1.11,0,4.3-.05,16-.08,53.89-.08h.26v12.89c0,24.37-.06,46.43-.08,62.42,0,8-.06,14.43-.08,18.92,0,2.22,0,4,0,5.15,0,.57,0,1,0,1.33A3.92,3.92,0,0,1,100.46,414.84Z" style="fill:#263238"></path><rect x="38.72" y="313.95" width="2.33" height="4.1" style="fill:#263238"></rect><rect x="54.62" y="313.95" width="2.33" height="4.1" style="fill:#263238"></rect></g><g id="freepik--Character--inject-3"><path d="M353.14,157.34a12.14,12.14,0,0,0-.29-11.44l-6,35.14a7.62,7.62,0,0,0,8.08-9.55c1.88-2.24,3.38-5,3.3-7.92S356.05,157.67,353.14,157.34Z" style="fill:#e0e0e0"></path><path d="M353.61,152.45c1.53-4.35-.58-9.45-4.3-12.18s-8.68-3.34-13.22-2.52c-3.58.65-7.34,2.48-8.59,5.9-2.63-1.31-7.26-.75-9.74.84a8.75,8.75,0,0,0-3.95,7.46,11.42,11.42,0,0,0-5.11,18.91c-3.2,3.8-1.78,11.11,1.38,14.94s7.47,4.53,12.37,5.36c6.71,1.14,13.93.43,19.75-3.1a22.42,22.42,0,0,0,9.95-25.17,13.46,13.46,0,0,1-.86-4.36C351.42,156.35,352.88,154.51,353.61,152.45Z" style="fill:#e0e0e0"></path><path d="M334.65,211.36a11.21,11.21,0,0,1-12.46-9.54L317,165.47c-1.71-9.72,2.51-18.82,12.28-20.27l.91-.08a17.65,17.65,0,0,1,19,14.6c1.44,8.44,2.92,17.78,3.27,22.34.72,9.44-8.58,11.75-8.58,11.75s.25,2.18.62,4.94a11.22,11.22,0,0,1-9.77,12.61Z" style="fill:#ffbf9d"></path><path d="M343.8,193.81a22.14,22.14,0,0,1-12.6-2.43s3.59,6.84,12.93,5.16Z" style="fill:#ff9a6c"></path><path d="M335.49,179.46a2,2,0,0,1,3.66,1,2.07,2.07,0,0,1-1,2,2.51,2.51,0,0,1-1.62.23,1.9,1.9,0,0,1-1.13-.53,1.81,1.81,0,0,1-.35-1.71,2.79,2.79,0,0,1,.75-1.28" style="fill:#ff9a6c"></path><path d="M347.06,170.77a1.35,1.35,0,0,1-1.18,1.47,1.29,1.29,0,0,1-1.5-1.09,1.34,1.34,0,0,1,1.18-1.47A1.29,1.29,0,0,1,347.06,170.77Z" style="fill:#263238"></path><path d="M347.54,164.54c-.16.19-1.24-.47-2.69-.34s-2.45,1-2.62.79,0-.4.49-.78a3.68,3.68,0,0,1,2.08-.85,3.63,3.63,0,0,1,2.16.49C347.43,164.15,347.61,164.46,347.54,164.54Z" style="fill:#263238"></path><path d="M333.8,171.05a1.36,1.36,0,0,1-1.18,1.48,1.3,1.3,0,0,1-1.5-1.09A1.37,1.37,0,0,1,332.3,170,1.3,1.3,0,0,1,333.8,171.05Z" style="fill:#263238"></path><path d="M333.62,166.13c-.15.19-1.24-.47-2.69-.34s-2.45,1-2.62.79.06-.41.49-.78a3.67,3.67,0,0,1,2.08-.85,3.56,3.56,0,0,1,2.16.49C333.51,165.74,333.69,166,333.62,166.13Z" style="fill:#263238"></path><path d="M339.5,176.46a9.33,9.33,0,0,1,2.31-.63c.37-.07.71-.18.75-.44a1.8,1.8,0,0,0-.34-1.07l-1.35-2.73c-1.87-3.87-3.27-7.08-3.11-7.15s1.81,3,3.68,6.89c.46.95.89,1.87,1.3,2.74a2.14,2.14,0,0,1,.32,1.44.89.89,0,0,1-.56.59,2.41,2.41,0,0,1-.62.15A9.93,9.93,0,0,1,339.5,176.46Z" style="fill:#263238"></path><path d="M327.57,162.57c.11-.4,1.57-.34,3.26-.68s3-.92,3.28-.59c.11.16-.1.55-.62,1a5.55,5.55,0,0,1-2.38,1.06,5.49,5.49,0,0,1-2.6-.09C327.86,163.05,327.52,162.77,327.57,162.57Z" style="fill:#e0e0e0"></path><path d="M340.83,160c.28-.3,1.25.13,2.45.26s2.24,0,2.44.36c.08.18-.11.49-.58.76a3.56,3.56,0,0,1-3.94-.5C340.81,160.49,340.7,160.14,340.83,160Z" style="fill:#e0e0e0"></path><path d="M318.37,172.5c-.17-.06-6.66-1.34-5.88,5.09s7.08,4.32,7.07,4.14S318.37,172.5,318.37,172.5Z" style="fill:#ffbf9d"></path><path d="M317.3,179.53s-.1.09-.28.2a1.15,1.15,0,0,1-.84.12,2.79,2.79,0,0,1-1.58-2.33,3.6,3.6,0,0,1,.12-1.65,1.33,1.33,0,0,1,.73-1,.57.57,0,0,1,.7.23c.11.17.09.3.12.31s.13-.13,0-.38a.7.7,0,0,0-.3-.38.91.91,0,0,0-.64-.09,1.62,1.62,0,0,0-1.05,1.14,3.86,3.86,0,0,0-.17,1.84,2.93,2.93,0,0,0,2,2.58,1.22,1.22,0,0,0,1-.29C317.31,179.69,317.32,179.54,317.3,179.53Z" style="fill:#ff9a6c"></path><path d="M340.46,181c-.09.21-1.43-.25-3.12-.3s-3.07.25-3.15,0,1.3-.92,3.18-.84S340.57,180.82,340.46,181Z" style="fill:#263238"></path><path d="M332.9,181.64c0,.05-.19.05-.43-.09a1.33,1.33,0,0,1-.6-.84,1.3,1.3,0,0,1,.18-1c.15-.23.3-.3.34-.26s-.28.56-.13,1.19S332.94,181.54,332.9,181.64Z" style="fill:#ff9a6c"></path><path d="M329.15,171.12c0,.1-.47.36-1.15.32s-1.16-.34-1.11-.44.53,0,1.13,0S329.12,171,329.15,171.12Z" style="fill:#ff9a6c"></path><path d="M329.53,171.65c0,.11-.42.22-.88.45s-.8.51-.89.43.16-.51.71-.78S329.54,171.54,329.53,171.65Z" style="fill:#ff9a6c"></path><path d="M350.12,170.09c.09.06-.12.45-.59.65s-.9.09-.88,0,.35-.18.72-.34S350,170,350.12,170.09Z" style="fill:#ff9a6c"></path><path d="M350.21,171.35c0,.11-.36.23-.83.2s-.83-.19-.81-.3.39-.12.83-.09S350.2,171.24,350.21,171.35Z" style="fill:#ff9a6c"></path><path d="M332.12,182.13c0,.11-.54,0-.8-.57s-.08-1,0-1,.12.41.33.81S332.17,182,332.12,182.13Z" style="fill:#ff9a6c"></path><path d="M327,198.32a2.56,2.56,0,0,0,.11-1.44,1.53,1.53,0,0,0-.33-.63,3.05,3.05,0,0,0-.65-.54,1.55,1.55,0,0,1-.69-.84,1.52,1.52,0,0,1,.29-1.14,1.66,1.66,0,0,0,.34-.87,1.07,1.07,0,0,0-.42-.69c-.22-.2-.47-.38-.68-.6a1.28,1.28,0,0,1-.38-.77,1.52,1.52,0,0,1,.46-1.09c.19-.2.31-.28.33-.26s-.06.14-.21.35a1.48,1.48,0,0,0-.3,1c.05.42.51.72,1,1.12a1.42,1.42,0,0,1,.57,1,2,2,0,0,1-.39,1.09,1.17,1.17,0,0,0-.25.84,1.26,1.26,0,0,0,.53.65,3.18,3.18,0,0,1,.69.63,1.77,1.77,0,0,1,.34.76,1.9,1.9,0,0,1-.12,1.17C327.12,198.23,327,198.33,327,198.32Z" style="fill:#ff9a6c"></path><path d="M329.58,197.94a2.61,2.61,0,0,0-.29-1.14c-.16-.33-.43-.69-.67-1.16a2.36,2.36,0,0,1-.28-.8,1.59,1.59,0,0,1,.16-.93c.13-.27.22-.48.15-.67a1.15,1.15,0,0,0-.43-.49,4.41,4.41,0,0,1-.58-.47,1.26,1.26,0,0,1-.3-.63,1.21,1.21,0,0,1,.22-.94c.14-.18.27-.23.28-.21s-.06.11-.15.29a1.25,1.25,0,0,0-.08.8c.07.35.38.58.82.86a1.44,1.44,0,0,1,.59.68,1.26,1.26,0,0,1-.16,1,1.48,1.48,0,0,0,.09,1.4c.21.44.45.84.6,1.2a1.83,1.83,0,0,1,.16.93C329.67,197.84,329.6,197.94,329.58,197.94Z" style="fill:#ff9a6c"></path><path d="M335.3,162c-.06-.09.32-.46.36-1.07s-.25-1-.17-1.12.18,0,.33.23a1.43,1.43,0,0,1-.15,1.79C335.49,162,335.33,162,335.3,162Z" style="fill:#ff9a6c"></path><path d="M339.14,161.4s-.16.06-.37,0a1.37,1.37,0,0,1-.65-1.49c.06-.22.17-.32.21-.3s0,.51.23,1S339.17,161.29,339.14,161.4Z" style="fill:#ff9a6c"></path><path d="M333.8,173.57c0,.11-.62.21-1.37.4s-1.35.4-1.4.3.5-.48,1.3-.68S333.8,173.46,333.8,173.57Z" style="fill:#ff9a6c"></path><path d="M349.9,154.58a11.94,11.94,0,0,0-6.7-7.05c-3.05-1.36-7.4-3.2-10.74-3.09a25.43,25.43,0,0,0-10.3,2.85c-3.61,2-6.05,6.41-7.29,10.35s.48,8.25,1.18,12.32l1,3.89c.47,1.31,2.4,1.52,3.54.72a6.53,6.53,0,0,0,2.09-3.52c2-6.13,3.36-12.62,2.56-19a34,34,0,0,0,10,4.5,5.2,5.2,0,0,0,2.56.2,2,2,0,0,0,1.56-1.82,16.62,16.62,0,0,0,5.16,4.19c1.24.64,2.75,1.11,4,.49a3.19,3.19,0,0,0,1.58-2.23A5.85,5.85,0,0,0,349.9,154.58Z" style="fill:#e0e0e0"></path><path d="M306.06,165.15c0-.08,1.38,0,3.54-.31a17.72,17.72,0,0,0,3.69-1,20.78,20.78,0,0,0,4.12-2.25,19.72,19.72,0,0,0,5.73-6.25c1.11-1.9,1.51-3.22,1.58-3.19a3.67,3.67,0,0,1-.26.93,15.85,15.85,0,0,1-1.07,2.4,18.85,18.85,0,0,1-5.75,6.43,20,20,0,0,1-4.21,2.27,16.46,16.46,0,0,1-3.79,1,15.43,15.43,0,0,1-2.62.13A4.42,4.42,0,0,1,306.06,165.15Z" style="fill:#fff"></path><path d="M347.08,158.6s.24,0,.66-.12a3.2,3.2,0,0,0,1.57-.94,2.84,2.84,0,0,0,.75-2.6,3.12,3.12,0,0,0-2.5-2.33l-.23,0,.09-.21A7.46,7.46,0,0,0,346,144.7a9.51,9.51,0,0,0-5.94-3,12.36,12.36,0,0,0-5.49.62,18,18,0,0,0-3.42,1.61,12.76,12.76,0,0,1-1.19.73s.09-.1.27-.25.47-.36.84-.61a16,16,0,0,1,3.41-1.74,12.25,12.25,0,0,1,5.63-.72,9.75,9.75,0,0,1,6.19,3.06,7.74,7.74,0,0,1,1.47,8.06l-.13-.24a3.4,3.4,0,0,1,2.73,2.62,3.07,3.07,0,0,1-.88,2.81,3.24,3.24,0,0,1-1.7.9,2,2,0,0,1-.51,0C347.14,158.62,347.08,158.61,347.08,158.6Z" style="fill:#fff"></path><path d="M334.47,175.13a6.15,6.15,0,0,0,2-.7,4.06,4.06,0,0,0,1.55-1.82,3.93,3.93,0,0,0,.3-1.44c0-.55,0-1.13,0-1.72l.22.22-8.2,0h-4.09l.25-.25a13,13,0,0,0,.09,2.46,3.89,3.89,0,0,0,2.71,2.88A6,6,0,0,0,331,175l2.53.08a3.17,3.17,0,0,1,.91.09,4.15,4.15,0,0,1-.91.08l-2.53.08a6.43,6.43,0,0,1-1.81-.13,4.29,4.29,0,0,1-3.07-3.14,13,13,0,0,1-.14-2.57v-.25h4.36l8.2,0h.23v.22c0,.6,0,1.17,0,1.73a4,4,0,0,1-.38,1.57,4.12,4.12,0,0,1-1.75,1.91,3.89,3.89,0,0,1-1.58.49A1.63,1.63,0,0,1,334.47,175.13Z" style="fill:#263238"></path><path d="M348.83,174.89a5.86,5.86,0,0,0,2-.7,4,4,0,0,0,1.54-1.83,3.93,3.93,0,0,0,.3-1.44c0-.54,0-1.12,0-1.71l.23.23-7.25,0h-4.09l.25-.25a18.88,18.88,0,0,0,.05,2.29,3.93,3.93,0,0,0,.84,1.81,4,4,0,0,0,2.94,1.42l2.33.07a3.21,3.21,0,0,1,.84.09,3,3,0,0,1-.84.08l-2.33.08a4.25,4.25,0,0,1-3.27-1.47,4.31,4.31,0,0,1-1-2,15.61,15.61,0,0,1-.09-2.37V169h4.35l7.25,0h.23v.23c0,.6,0,1.17,0,1.73a4.17,4.17,0,0,1-2.12,3.48,3.64,3.64,0,0,1-1.59.49A1.37,1.37,0,0,1,348.83,174.89Z" style="fill:#263238"></path><path d="M341.74,170.22c-.07.14-.8-.13-1.72,0s-1.58.49-1.67.38.53-.79,1.62-.9S341.82,170.11,341.74,170.22Z" style="fill:#263238"></path><path d="M326.1,169.68a16.8,16.8,0,0,1-4.6,1.79,17.44,17.44,0,0,1-4.85.92,36.37,36.37,0,0,1,4.71-1.42A37.3,37.3,0,0,1,326.1,169.68Z" style="fill:#263238"></path><path d="M306.94,428.19s-6.09,14-3.85,15.41,31.24,0,31.24,0l-8.81-12.84Z" style="fill:#ffbf9d"></path><rect x="303.09" y="441.22" width="22.43" height="3.4" style="fill:#FF725E"></rect><polygon points="367.68 271.73 308.6 271.73 302.17 320.86 305.99 429.39 325.45 432.03 339.39 336.24 348.1 429.48 367.7 431.47 376.73 314.16 367.68 271.73" style="fill:#ffbf9d"></polygon><path d="M337.51,434.62a16.35,16.35,0,0,0-13.51-2.8,14.23,14.23,0,0,0-7.09,4.33,26.66,26.66,0,0,0-3.8,6.14l.12,2.34,27.73-.18A9.58,9.58,0,0,0,337.51,434.62Z" style="fill:#FF725E"></path><path d="M348.64,428.19s-6.1,14-3.86,15.41,31.24,0,31.24,0l-8.81-12.84Z" style="fill:#ffbf9d"></path><rect x="343.3" y="441.22" width="23.91" height="3.4" style="fill:#FF725E"></rect><path d="M379.2,434.62a16.34,16.34,0,0,0-13.51-2.8,14.27,14.27,0,0,0-7.09,4.33,26.66,26.66,0,0,0-3.8,6.14l.12,2.34,27.73-.18A9.58,9.58,0,0,0,379.2,434.62Z" style="fill:#FF725E"></path><path d="M356.16,407s-.28-.19-.33-.75a3.56,3.56,0,0,1,.75-2.1,4.69,4.69,0,0,0,.63-1.29,1.43,1.43,0,0,0-.35-1.4c-.37-.44-.92-.78-1.37-1.36a1.84,1.84,0,0,1-.39-1.08,2.34,2.34,0,0,1,.34-1.12,8.83,8.83,0,0,0,1-1.71,2.21,2.21,0,0,0-.24-1.66c-.52-1-1.36-1.88-1.54-2.88a1.87,1.87,0,0,1,.85-2c.52-.27.84-.07.82-.06a1.62,1.62,0,0,0-.72.23,1.68,1.68,0,0,0-.59,1.79c.19.86,1,1.62,1.61,2.75a2.66,2.66,0,0,1,.3,2,8.45,8.45,0,0,1-1.06,1.82,1.36,1.36,0,0,0,0,1.64c.36.48.91.84,1.33,1.35a1.93,1.93,0,0,1,.4,1.82,4.85,4.85,0,0,1-.74,1.38,3.73,3.73,0,0,0-.86,1.89C356,406.73,356.21,407,356.16,407Z" style="fill:#ff9a6c"></path><path d="M361,407s-.28-.19-.33-.75a3.52,3.52,0,0,1,.76-2.1,5.33,5.33,0,0,0,.63-1.29,1.46,1.46,0,0,0-.36-1.4c-.36-.44-.92-.78-1.37-1.36a1.84,1.84,0,0,1-.39-1.08,2.34,2.34,0,0,1,.34-1.12,8.83,8.83,0,0,0,1-1.71,2.21,2.21,0,0,0-.24-1.66c-.52-1-1.35-1.88-1.54-2.88a1.88,1.88,0,0,1,.85-2c.52-.27.84-.07.82-.06a1.62,1.62,0,0,0-.72.23,1.7,1.7,0,0,0-.59,1.79c.2.86,1,1.62,1.61,2.75a2.66,2.66,0,0,1,.3,2,8.45,8.45,0,0,1-1.06,1.82,1.36,1.36,0,0,0,0,1.64c.36.48.91.84,1.33,1.35a1.88,1.88,0,0,1,.4,1.82,4.85,4.85,0,0,1-.74,1.38,3.73,3.73,0,0,0-.86,1.89C360.8,406.73,361,407,361,407Z" style="fill:#ff9a6c"></path><path d="M311.72,397.2s-.28-.19-.33-.76a3.51,3.51,0,0,1,.76-2.09,5,5,0,0,0,.63-1.29,1.46,1.46,0,0,0-.36-1.4c-.36-.44-.92-.78-1.37-1.36a1.85,1.85,0,0,1-.39-1.09,2.3,2.3,0,0,1,.34-1.11,9.14,9.14,0,0,0,1-1.71,2.21,2.21,0,0,0-.24-1.66c-.52-1-1.35-1.88-1.54-2.88a1.9,1.9,0,0,1,.85-2.05c.52-.26.84-.06.82-.05a1.57,1.57,0,0,0-.71.23,1.67,1.67,0,0,0-.6,1.79,14.5,14.5,0,0,0,1.61,2.74,2.69,2.69,0,0,1,.3,2,8.7,8.7,0,0,1-1.06,1.82,1.36,1.36,0,0,0,0,1.64c.36.48.91.84,1.33,1.35a1.88,1.88,0,0,1,.4,1.82,4.85,4.85,0,0,1-.74,1.38,3.73,3.73,0,0,0-.86,1.89C311.57,396.93,311.77,397.17,311.72,397.2Z" style="fill:#ff9a6c"></path><path d="M316.52,397.2s-.29-.19-.34-.76a3.51,3.51,0,0,1,.76-2.09,4.69,4.69,0,0,0,.63-1.29,1.44,1.44,0,0,0-.36-1.4c-.36-.44-.92-.78-1.37-1.36a1.85,1.85,0,0,1-.39-1.09,2.21,2.21,0,0,1,.35-1.11,9.61,9.61,0,0,0,1-1.71,2.16,2.16,0,0,0-.24-1.66c-.52-1-1.35-1.88-1.53-2.88a1.88,1.88,0,0,1,.84-2.05c.52-.26.85-.06.82-.05a1.57,1.57,0,0,0-.71.23,1.67,1.67,0,0,0-.6,1.79,14.5,14.5,0,0,0,1.61,2.74,2.69,2.69,0,0,1,.3,2,9.13,9.13,0,0,1-1.05,1.82,1.35,1.35,0,0,0,0,1.64c.36.48.91.84,1.33,1.35a1.91,1.91,0,0,1,.41,1.82,4.86,4.86,0,0,1-.75,1.38,3.73,3.73,0,0,0-.86,1.89A2.53,2.53,0,0,0,316.52,397.2Z" style="fill:#ff9a6c"></path><path d="M347.81,198.8l-31.05.46.91,8.45s6.45,5.52,7.1,5.75,15.64,2.82,15.64,2.82,16.44-7.06,16.22-7S347.81,198.8,347.81,198.8Z" style="fill:#ffbf9d"></path><path d="M376.74,292.67c-2.52-12.23-4.25-28.78-4.25-28.78L371,221.4l-14.07-19.62L355.61,199l-8.22-.78v0h.32c0,.06-.63.31-.6.74-.87,2-1.87,8.29-9.89,9.94-9.25,1.9-14.58-4.55-17.07-7.26-.6-1.14-1.63-2.67-1.63-2.67-.31.09-6,1-6,1l-12.4,19.55,3.29,29.76s-9.62,27.44-11,37.68c-1.61,11.83-2.6,81.7-2.6,81.7l88.07-1.76S379.26,304.9,376.74,292.67Z" style="fill:#FF725E"></path><path d="M304.19,251.52a1.83,1.83,0,0,1,0,.31l-.07.88c-.07.82-.17,1.95-.31,3.4-.26,3-.64,7.24-1.11,12.49-.91,10.55-2,25.14-3.12,41.26s-1.92,30.73-2.42,41.31c-.24,5.26-.43,9.53-.56,12.52-.06,1.45-.11,2.59-.15,3.41,0,.37,0,.66-.05.89a1.25,1.25,0,0,1,0,.3,1.09,1.09,0,0,1,0-.31v-.88c0-.82,0-2,0-3.41.07-3,.19-7.25.4-12.54.41-10.59,1.2-25.2,2.27-41.33s2.26-30.71,3.27-41.25c.5-5.28.95-9.54,1.28-12.48.18-1.44.31-2.58.41-3.39.05-.36.09-.65.12-.88A1.21,1.21,0,0,1,304.19,251.52Z" style="fill:#263238"></path><rect x="289.79" y="364.63" width="88.46" height="4.01" style="fill:#e0e0e0"></rect><g style="opacity:0.30000000000000004"><path d="M324.35,280.09c2.73,4.07,7.69,6.17,12.57,6.69a35.55,35.55,0,0,0,14.87-1.93l.14-.05a39.22,39.22,0,0,0,20-15.39l.6-.88.81-2.93Z"></path></g><path d="M328.08,267.16c.2-.06,6.48-3.24,8.05-3.39s13.72-.34,13.72-.34l2.86,11.85s-10.27,4.57-11.84,4.91-8.28,2.53-9.39,2.5-4.19-1.18-4.17-1.9a1.13,1.13,0,0,1,.49-1,22.13,22.13,0,0,0,4.23-.12,19,19,0,0,0,2.18-.84s-11.16,1.31-11.94,1C320.54,279.33,321,278,321,278s-1.27-1-1.37-1.8.37-1.22,1.09-1.52,5.61-2.29,7.05-2.64,5.23-.87,5.23-.87-11.48.87-12.18.52-1.44-1.61-.25-2.29a16.12,16.12,0,0,1,4.68-1.86Z" style="fill:#ffbf9d"></path><path d="M336,274.42a13,13,0,0,1-2.17.8c-1.37.43-3.27,1-5.41,1.43s-4.09.77-5.51,1a12.19,12.19,0,0,1-2.31.17,14.8,14.8,0,0,1,2.27-.45c1.41-.24,3.34-.59,5.47-1.06s4-.94,5.41-1.31A14.49,14.49,0,0,1,336,274.42Z" style="fill:#ff9a6c"></path><path d="M335.21,265.63a33.49,33.49,0,0,1-7,1.34,33.17,33.17,0,0,1,7-1.34Z" style="fill:#ff9a6c"></path><path d="M349.94,268.13s-.18,0-.47.05a4.19,4.19,0,0,0-1.17.42,3.74,3.74,0,0,1-1.89.54c-.77-.07-1.52-.52-2.13,0a5.89,5.89,0,0,1-1,.71,2,2,0,0,1-1.21.08c-.74-.17-1.31-.48-1.82-.53a1.51,1.51,0,0,0-1.13.28c-.22.19-.27.36-.3.34s0-.19.19-.45a1.58,1.58,0,0,1,1.26-.45,14.35,14.35,0,0,1,1.87.45,1.76,1.76,0,0,0,1-.07,7.4,7.4,0,0,0,.95-.69,1.55,1.55,0,0,1,.63-.27,2.14,2.14,0,0,1,.67,0c.4.08.75.21,1.08.25a3.93,3.93,0,0,0,1.75-.43,3.39,3.39,0,0,1,1.27-.32A.85.85,0,0,1,349.94,268.13Z" style="fill:#ff9a6c"></path><path d="M350,270.54a2.3,2.3,0,0,1-1.32.83,3.64,3.64,0,0,1-1.71.11,3.8,3.8,0,0,0-.92-.1,1,1,0,0,0-.72.49,1.62,1.62,0,0,1-.94.67,2.66,2.66,0,0,1-1.05,0,7.68,7.68,0,0,0-1.6-.3,1.41,1.41,0,0,0-.94.36c-.18.17-.22.32-.25.31s0-.18.13-.41a1.45,1.45,0,0,1,1-.54,6.4,6.4,0,0,1,1.67.22,1.49,1.49,0,0,0,1.62-.57,2.69,2.69,0,0,1,.41-.42A1.17,1.17,0,0,1,346,271a3.44,3.44,0,0,1,1,.14,3.77,3.77,0,0,0,1.58,0A9,9,0,0,0,350,270.54Z" style="fill:#ff9a6c"></path><path d="M355.32,201.65s12.07-1.1,18.43,14.68c4.39,10.92,12.29,33.3,10.13,41.66-2,7.56-32,17.68-32,17.68l-3-12.22L366.26,249l-7.05-26Z" style="fill:#ffbf9d"></path><path d="M352.89,198.8s12.34-.42,17.85,9.41,12.71,31.65,12.71,31.65l-19.42,5S351.84,213,352.42,212.65,352.89,198.8,352.89,198.8Z" style="fill:#FF725E"></path><path d="M312.53,200S298,203.27,292,214.84c-4.6,8.83-14.53,35.46-14.73,40.77s17,22.23,17,22.23l8-6.11-4.85-17.84,9.1-21.13Z" style="fill:#ffbf9d"></path><path d="M305,443.6h0a1.88,1.88,0,0,1-1.89-1.89c0-1.53.23-152.83.17-155.27a10,10,0,0,0-3.46-7.71,1.89,1.89,0,0,1,2.2-3.08,13.75,13.75,0,0,1,5,10.68c.07,2.5-.16,149.14-.17,155.38A1.89,1.89,0,0,1,305,443.6Z" style="fill:#ae7461"></path><path d="M294.28,297.69h0a1.88,1.88,0,0,1-1.89-1.9c0-5.62,0-14.17,0-14.67a1.86,1.86,0,0,1,1.75-2,1.93,1.93,0,0,1,2,1.78c0,.09,0,.36,0,14.89A1.89,1.89,0,0,1,294.28,297.69Z" style="fill:#ae7461"></path><path d="M297.2,270.78s-2.75,2.4-3.66,3.21c-.71.61-1.54,4.91-1.9,6.9a2,2,0,0,0,.56,1.75c1.23,1.24,3.74,3.6,5,3.73a4.67,4.67,0,0,0,3.1-1s1.72,1,2.75.11-1.43-6.42-1.43-6.42-1-2.62,1.63-2.45l1.18,1.94,2.31,4.81s2.22-.23,2.5-1.09-.74-3.72-.74-3.72a4.19,4.19,0,0,0,.51-3.39c-.63-1.66-1.66-4.7-4.7-5.39S297.2,270.78,297.2,270.78Z" style="fill:#ffbf9d"></path><path d="M300.13,284.7c-.05,0-.52-.57-1.37-1.45a21.78,21.78,0,0,0-3.66-3.07,3.34,3.34,0,0,1-1-1,2.09,2.09,0,0,1-.23-1.35,4.22,4.22,0,0,1,1-2c.4-.48.73-.85.94-1.12s.32-.42.35-.41a5.61,5.61,0,0,1-1.06,1.7,4,4,0,0,0-.85,1.88,1.68,1.68,0,0,0,.21,1.11,3.14,3.14,0,0,0,.9.92,17.66,17.66,0,0,1,3.64,3.19A6.75,6.75,0,0,1,300.13,284.7Z" style="fill:#ff9a6c"></path><path d="M305.21,275.68c.09.07-.36.64-.56,1.47s-.07,1.54-.18,1.57a1.83,1.83,0,0,1-.2-1.66C304.5,276.11,305.15,275.59,305.21,275.68Z" style="fill:#ff9a6c"></path><polygon points="308.9 444.98 301.8 444.98 303.12 439.33 307.32 439.33 308.9 444.98" style="fill:#455a64"></polygon><path d="M279.78,241.65l20.35,10.87,9.09-20.62,3.8-32s-12.86,1.35-20,13.17S279.78,241.65,279.78,241.65Z" style="fill:#FF725E"></path><path d="M364.73,249.83c2.15-10-.7-20.86-6-29.6" style="fill:#FF725E"></path><path d="M358.69,220.23a7,7,0,0,1,.68,1c.42.66,1,1.65,1.62,2.9a46.12,46.12,0,0,1,2,4.51,46.77,46.77,0,0,1,1.73,5.79,43.1,43.1,0,0,1,.85,6,34.3,34.3,0,0,1-.06,4.93,17.75,17.75,0,0,1-.22,1.88,13.56,13.56,0,0,1-.24,1.41,6.69,6.69,0,0,1-.3,1.18,7.48,7.48,0,0,1,.14-1.2,13.38,13.38,0,0,0,.18-1.41c.06-.56.14-1.18.16-1.88a36.56,36.56,0,0,0,0-4.89,44.13,44.13,0,0,0-.87-5.92,48,48,0,0,0-1.68-5.75c-.64-1.73-1.29-3.26-1.89-4.52s-1.12-2.26-1.5-2.94A7.51,7.51,0,0,1,358.69,220.23Z" style="fill:#263238"></path><path d="M361.19,224.86a11.27,11.27,0,0,1,.32-4,19.13,19.13,0,0,1,1-3.85,22.26,22.26,0,0,1-.65,3.93C361.44,223.1,361.3,224.86,361.19,224.86Z" style="fill:#263238"></path><path d="M300.43,222a4.21,4.21,0,0,1,.27,1c.14.68.32,1.66.52,2.87.4,2.44.85,5.81,1.24,9.55s.65,7.14.81,9.6c.07,1.23.13,2.22.15,2.91a4,4,0,0,1,0,1.07,4.32,4.32,0,0,1-.18-1c-.09-.8-.2-1.77-.32-2.9-.26-2.58-.59-5.9-1-9.57s-.78-7.11-1.09-9.55c-.14-1.13-.25-2.1-.35-2.9A3.94,3.94,0,0,1,300.43,222Z" style="fill:#263238"></path><path d="M351.18,198.48a17.48,17.48,0,0,1-9.33,11.41,19.16,19.16,0,0,1-26.43-10.61l3.54-.48s4,10.34,15.06,10,13.36-10.56,13.36-10.56Z" style="fill:#e0e0e0"></path><path d="M316.76,200.7a2,2,0,0,1-.28-.4,8.45,8.45,0,0,1-.62-1.25,10.41,10.41,0,0,1-.63-5.08,10.11,10.11,0,0,1,1-3.42,2.44,2.44,0,0,1,.61-.85,1.1,1.1,0,0,1,.55-.27.78.78,0,0,1,.65.23,2,2,0,0,1,.39,1.08c.05.35.1.7.13,1.07a13.19,13.19,0,0,1-.43,4.5,4.33,4.33,0,0,1-1.17,2.18,2.06,2.06,0,0,1-1.25.52,3.13,3.13,0,0,1-1.3-.23,19.7,19.7,0,0,1-4.28-2.3,5.7,5.7,0,0,1-2.48-3.81,1.62,1.62,0,0,1,.34-1.15,1.19,1.19,0,0,1,1.11-.46,2.27,2.27,0,0,1,1,.46c.27.19.54.37.79.57a19.85,19.85,0,0,1,2.61,2.41,19.43,19.43,0,0,1,2.93,4.2A13.23,13.23,0,0,1,317,200c.12.3.17.45.15.46s-.31-.59-.9-1.63a21.34,21.34,0,0,0-3-4.05,20,20,0,0,0-2.6-2.31,5,5,0,0,0-1.58-.93c-.53-.09-1,.52-.92,1.13a5.39,5.39,0,0,0,2.31,3.44,20.5,20.5,0,0,0,4.15,2.21,1.91,1.91,0,0,0,2-.19,3.85,3.85,0,0,0,1-1.92,13.29,13.29,0,0,0,.44-4.34c0-.35-.07-.69-.11-1a1.66,1.66,0,0,0-.25-.83c-.15-.16-.37-.12-.59.06a2,2,0,0,0-.51.71,9.51,9.51,0,0,0-1,3.27,10.74,10.74,0,0,0,.45,5C316.45,200.1,316.81,200.67,316.76,200.7Z" style="fill:#e0e0e0"></path><g style="opacity:0.30000000000000004"><path d="M300.8,224.68l-.18-2.05c-2.66,7.49-1.7,17.42,2.7,24A85.27,85.27,0,0,0,300.8,224.68Z"></path></g><rect x="352.59" y="226.2" width="2.55" height="6.25" style="fill:#fff"></rect><rect x="352.59" y="226.2" width="2.55" height="6.25" transform="translate(124.54 583.19) rotate(-90)" style="fill:#fff"></rect><rect x="348.84" y="233.76" width="9.62" height="2.81" style="fill:#fff"></rect><path d="M339.6,359.21a1.64,1.64,0,0,1-.17-.47c-.11-.38-.24-.83-.39-1.38-.34-1.21-.76-3-1.24-5.14A138.06,138.06,0,0,1,335.23,335a136.3,136.3,0,0,1-.33-17.42c.1-2.23.23-4,.36-5.27.06-.57.12-1,.16-1.43a1.68,1.68,0,0,1,.09-.49,1.73,1.73,0,0,1,0,.5c0,.39,0,.86-.06,1.43-.06,1.25-.14,3.05-.2,5.27a156.58,156.58,0,0,0,2.9,34.57c.43,2.18.8,3.94,1.08,5.16.11.56.21,1,.29,1.4A1.83,1.83,0,0,1,339.6,359.21Z" style="fill:#263238"></path><path d="M343.33,312.14a1.36,1.36,0,0,1,.08.46c0,.37.08.81.14,1.34.1,1.16.22,2.85.35,4.94.24,4.17.44,9.94.42,16.31s-.29,12.15-.58,16.32c-.14,2.08-.28,3.77-.4,4.93,0,.53-.1,1-.14,1.34a1.5,1.5,0,0,1-.09.46,1.7,1.7,0,0,1,0-.47c0-.37,0-.81.05-1.34.06-1.25.14-2.92.23-4.94.19-4.17.39-9.93.43-16.3s-.12-12.13-.27-16.3c-.08-2-.14-3.69-.19-4.94l0-1.34A1.7,1.7,0,0,1,343.33,312.14Z" style="fill:#263238"></path><path d="M279.56,241.54l1.33-2.8,20.51,10.9-1.27,2.88C300.08,252.51,278.53,241,279.56,241.54Z" style="fill:#e0e0e0"></path><path d="M299,219.88a28.23,28.23,0,0,1-2-4.22,28.26,28.26,0,0,1-1.79-4.33,17.16,17.16,0,0,1,2.27,4.11A17.43,17.43,0,0,1,299,219.88Z" style="fill:#263238"></path><polygon points="383.45 239.86 382.25 236.34 365.55 240.43 365.21 245.34 383.45 239.86" style="fill:#e0e0e0"></polygon></g></svg>